<svg width="100" height="76" viewBox="0 0 100 76" fill="none" xmlns="http://www.w3.org/2000/svg">
<path d="M46.0106 75.4999H17.6002C16.2538 75.5 14.9619 74.9416 14.0065 73.9467C13.051 72.9517 12.5095 71.6008 12.5 70.1888V40.3936H46.0106V75.4999Z" fill="#BABBC3"/>
<path d="M50.7915 40.3213L80.4403 37.7447C81.7792 37.6284 83.11 38.0551 84.1399 38.931C85.1699 39.8069 85.8147 41.0603 85.9325 42.4154L88.0994 67.3504C88.2172 68.7055 87.7983 70.0513 86.9348 71.0918C86.0714 72.1322 84.8342 72.7821 83.4953 72.8985L53.8465 75.4751L50.7915 40.3213Z" fill="#868997"/>
<path d="M20.7663 0.125299L44.2885 2.5372C45.5618 2.67694 46.7276 3.32065 47.5316 4.32791C48.3357 5.33518 48.7126 6.62427 48.5804 7.914L45.6418 36.5725L12.5 33.1742L15.4385 4.51573C15.5714 3.22005 16.2073 2.02959 17.2065 1.20622C18.2056 0.382855 19.4861 -0.00596422 20.7663 0.125299Z" fill="#9A9DA8"/>
</svg>
