<svg width="100" height="76" viewBox="0 0 100 76" fill="none" xmlns="http://www.w3.org/2000/svg">
<path d="M18.8132 0.5H44.7055C46.1082 0.510143 47.45 1.08944 48.4384 2.11153C49.4267 3.13362 49.9813 4.51557 49.9813 5.95595V37.9616H13.5V5.95595C13.5 4.50894 14.0598 3.1212 15.0562 2.09801C16.0526 1.07482 17.404 0.5 18.8132 0.5Z" fill="#BABBC3" stroke="#868997" stroke-miterlimit="10"/>
<path d="M13.5 37.9614H49.9813V75.4614H18.8132C17.4105 75.4615 16.0647 74.8919 15.0694 73.877C14.074 72.8622 13.5099 71.4843 13.5 70.0439V37.9614Z" fill="#BABBC3" stroke="#868997" stroke-miterlimit="10"/>
<path d="M49.9812 37.9614H81.1867C82.5959 37.9614 83.9473 38.5362 84.9437 39.5594C85.9401 40.5826 86.4999 41.9704 86.4999 43.4174V70.0439C86.4999 71.4909 85.9401 72.8787 84.9437 73.9019C83.9473 74.925 82.5959 75.4999 81.1867 75.4999H49.9812V37.9614Z" fill="#BABBC3" stroke="#868997" stroke-miterlimit="10"/>
</svg>
