<svg width="100" height="76" viewBox="0 0 100 76" fill="none" xmlns="http://www.w3.org/2000/svg">
<path d="M47.634 0.576959C38.5462 1.31321 30.0806 5.36785 23.9354 11.9274C17.7903 18.487 14.4202 27.0662 14.5014 35.9439V63.8227C14.5014 69.8516 16.9864 72.2325 20.063 72.2325H23.179V35.8671C23.1669 29.0026 25.8528 22.3936 30.686 17.3955C35.5192 12.3973 42.1334 9.38874 49.1723 8.98669C52.7447 8.86844 56.3051 9.44964 59.6425 10.6958C62.9799 11.942 66.0263 13.8279 68.6012 16.2416C71.1761 18.6553 73.227 21.5477 74.6324 24.7473C76.0378 27.947 76.7691 31.3888 76.7828 34.8687V72.3093H79.9383C80.6701 72.3144 81.3957 72.1778 82.0728 71.9075C82.7499 71.6372 83.3651 71.2386 83.8826 70.7348C84.4001 70.231 84.8096 69.6321 85.0872 68.9728C85.3648 68.3136 85.5051 67.6072 85.4999 66.8948V34.7919C85.4623 30.0819 84.4361 25.4291 82.4845 21.1193C80.5329 16.8094 77.697 12.9333 74.151 9.72916C70.6049 6.52499 66.4235 4.06031 61.8635 2.48646C57.3036 0.912611 52.4613 0.262809 47.634 0.576959Z" fill="#ABD3EC"/>
<path d="M29.8844 39.5535H36.077C37.5416 39.5535 38.9462 40.1199 39.9818 41.1281C41.0173 42.1363 41.5991 43.5037 41.5991 44.9295V70.0435C41.5991 71.4897 41.009 72.8767 39.9586 73.8993C38.9083 74.9219 37.4836 75.4964 35.9981 75.4964H29.8844C29.4258 75.5172 28.9677 75.4472 28.5378 75.2905C28.1078 75.1339 27.715 74.8939 27.3831 74.5852C27.0512 74.2764 26.7872 73.9053 26.6069 73.4943C26.4267 73.0832 26.334 72.6409 26.3345 72.194V42.7407C26.3496 42.3036 26.4539 41.8737 26.6411 41.4761C26.8283 41.0785 27.0947 40.7211 27.425 40.4246C27.7553 40.128 28.1427 39.8983 28.5649 39.7488C28.9871 39.5993 29.4356 39.5329 29.8844 39.5535Z" fill="#6F8F80"/>
<path d="M70.1166 75.458H64.1607C63.4251 75.458 62.6968 75.317 62.0173 75.0429C61.3377 74.7689 60.7203 74.3672 60.2002 73.8609C59.6801 73.3545 59.2675 72.7534 58.986 72.0918C58.7045 71.4303 58.5597 70.7212 58.5597 70.0051V44.8911C58.5597 43.4653 59.1415 42.0979 60.1771 41.0897C61.2127 40.0815 62.6172 39.5151 64.0818 39.5151H70.1166C71.0163 39.5151 71.8791 39.863 72.5153 40.4823C73.1514 41.1017 73.5088 41.9416 73.5088 42.8175V72.1556C73.5088 73.0314 73.1514 73.8714 72.5153 74.4907C71.8791 75.1101 71.0163 75.458 70.1166 75.458Z" fill="#6F8F80"/>
<path d="M26.4919 42.856H23.1392V72.2324H26.4919V42.856Z" fill="#ABD3EC"/>
<path d="M76.822 42.8174H73.5088V72.1938H76.822V42.8174Z" fill="#ABD3EC"/>
</svg>
