<svg width="100" height="76" viewBox="0 0 100 76" fill="none" xmlns="http://www.w3.org/2000/svg">
<path d="M97.2404 12.3831C90.0356 10.9169 69.9789 7.15227 61.5278 9.3714C58.1587 10.1046 55.0808 11.843 52.6872 14.3644C52.3838 14.7177 52.0096 15.0009 51.5898 15.1949C51.17 15.3889 50.7142 15.4893 50.2531 15.4893C49.792 15.4893 49.3363 15.3889 48.9165 15.1949C48.4966 15.0009 48.1225 14.7177 47.8191 14.3644C45.4033 11.7506 42.2673 9.94109 38.8227 9.17326C30.3327 6.95414 10.3149 10.7187 3.149 12.1849C2.39668 12.3412 1.72113 12.7586 1.23801 13.3659C0.75489 13.9731 0.494255 14.7324 0.50073 15.5136V72.141C0.490392 72.636 0.58999 73.1269 0.792097 73.5772C0.994204 74.0275 1.29361 74.4256 1.66798 74.7418C2.04236 75.058 2.48205 75.2841 2.95427 75.4032C3.42649 75.5224 3.91905 75.5316 4.39524 75.4301C13.2747 73.528 34.6946 68.9312 38.7838 68.7727C41.4083 68.7261 44.0273 69.0325 46.5728 69.6841C48.8293 70.2019 51.1707 70.2019 53.4272 69.6841C55.973 69.0339 58.5918 68.7274 61.2162 68.7727C65.1107 68.7727 86.6863 73.528 95.6048 75.4301C96.0809 75.5316 96.5735 75.5224 97.0457 75.4032C97.5179 75.2841 97.9576 75.058 98.332 74.7418C98.7064 74.4256 99.0058 74.0275 99.2079 73.5772C99.41 73.1269 99.5096 72.636 99.4993 72.141V15.5136C99.4864 14.8184 99.2624 14.1443 98.8579 13.5838C98.4535 13.0232 97.8885 12.6038 97.2404 12.3831Z" fill="#6F8F80"/>
<path d="M90.9314 4.14062C84.7391 2.71403 67.3306 -1.01093 59.7752 1.16857C56.732 1.9004 54.001 3.60937 51.9862 6.04272C51.7503 6.39416 51.4337 6.68171 51.0638 6.88041C50.6939 7.07912 50.282 7.18297 49.8637 7.18297C49.4454 7.18297 49.0335 7.07912 48.6636 6.88041C48.2938 6.68171 47.9771 6.39416 47.7412 6.04272C45.7139 3.62419 42.9881 1.91845 39.9522 1.16857C32.5526 -1.01093 15.1052 2.71403 8.79607 4.14062C8.12607 4.35797 7.54531 4.79428 7.14392 5.38183C6.74254 5.96937 6.54297 6.6753 6.5762 7.39005V62.8683C6.53566 63.3175 6.59616 63.7703 6.75314 64.1922C6.91011 64.6142 7.15944 64.9942 7.48221 65.3035C7.80497 65.6129 8.19272 65.8434 8.61605 65.9776C9.03937 66.1118 9.48716 66.1461 9.92548 66.0781C17.7145 64.2156 36.2524 59.6981 39.7964 59.5396C42.7743 59.5249 45.7343 60.0068 48.5591 60.9661C49.2804 61.2053 50.0576 61.2053 50.7789 60.9661C53.6036 60.0068 56.5637 59.5249 59.5416 59.5396C63.0466 59.5396 81.6624 64.2156 89.3736 66.0781C89.8148 66.1529 90.267 66.1236 90.6953 65.9925C91.1237 65.8613 91.5167 65.6318 91.8441 65.3217C92.1714 65.0115 92.4244 64.629 92.5836 64.2036C92.7427 63.7783 92.8036 63.3214 92.7618 62.8683V7.39005C92.8293 6.72163 92.689 6.0485 92.3606 5.46552C92.0322 4.88255 91.5323 4.41914 90.9314 4.14062Z" fill="#DBECF7"/>
<path d="M52.9209 5.40869C52.6872 5.68608 52.4146 5.92385 52.2198 6.20124C51.9784 6.54481 51.6599 6.82482 51.2907 7.018C50.9216 7.21117 50.5124 7.31194 50.0973 7.31194C49.6822 7.31194 49.2731 7.21117 48.9039 7.018C48.5348 6.82482 48.2163 6.54481 47.9748 6.20124C47.7485 5.91818 47.5011 5.65322 47.2349 5.40869V60.6095L48.9874 61.1246C49.7091 61.3611 50.4856 61.3611 51.2073 61.1246L52.9209 60.6095V5.40869Z" fill="#ABD3EC"/>
</svg>
