<svg width="100" height="76" viewBox="0 0 100 76" fill="none" xmlns="http://www.w3.org/2000/svg">
<path d="M71.8847 44.2612H61.051C59.7917 44.2612 58.584 44.7621 57.6935 45.6538C56.8031 46.5454 56.3029 47.7547 56.3029 49.0157V70.7456C56.2984 71.3712 56.4182 71.9914 56.6552 72.5703C56.8923 73.1491 57.2418 73.675 57.6836 74.1174C58.1254 74.5598 58.6506 74.9098 59.2287 75.1472C59.8068 75.3845 60.4262 75.5045 61.051 75.5H71.8847V44.2612Z" fill="#ABD3EC"/>
<path d="M67.17 0.5H50.4514C49.1979 0.508839 47.9988 1.01365 47.1155 1.90433C46.2323 2.79501 45.7367 3.99928 45.7367 5.25446V26.9843C45.7323 27.6071 45.851 28.2246 46.0859 28.8013C46.3209 29.3779 46.6675 29.9023 47.1057 30.3442C47.5439 30.7862 48.0652 31.1369 48.6394 31.3762C49.2136 31.6156 49.8294 31.7388 50.4514 31.7388H67.17V0.5Z" fill="#C5AAEE"/>
<path d="M22.9993 37.6318H17.2147C15.9612 37.6407 14.7621 38.1455 13.8788 39.0362C12.9956 39.9268 12.5 41.1311 12.5 42.3863V64.1162C12.5 65.3714 12.9956 66.5756 13.8788 67.4663C14.7621 68.357 15.9612 68.8618 17.2147 68.8706H22.9993V37.6318Z" fill="#E1DEA3"/>
<path d="M38.949 37.6318H17.2481C14.6258 37.6318 12.5 39.7605 12.5 42.3863V64.1162C12.5 66.742 14.6258 68.8706 17.2481 68.8706H38.949C41.5713 68.8706 43.6971 66.742 43.6971 64.1162V42.3863C43.6971 39.7605 41.5713 37.6318 38.949 37.6318Z" stroke="#9A9DA8" stroke-miterlimit="10"/>
<path d="M82.7519 44.2612H61.0511C58.4288 44.2612 56.303 46.3899 56.303 49.0157V70.7456C56.303 73.3714 58.4288 75.5 61.0511 75.5H82.7519C85.3742 75.5 87.5 73.3714 87.5 70.7456V49.0157C87.5 46.3899 85.3742 44.2612 82.7519 44.2612Z" stroke="#9A9DA8" stroke-miterlimit="10"/>
<path d="M72.2192 0.5H50.5184C47.8961 0.5 45.7703 2.62864 45.7703 5.25446V26.9843C45.7703 29.6101 47.8961 31.7388 50.5184 31.7388H72.2192C74.8415 31.7388 76.9673 29.6101 76.9673 26.9843V5.25446C76.9673 2.62864 74.8415 0.5 72.2192 0.5Z" stroke="#9A9DA8" stroke-miterlimit="10"/>
</svg>
