<svg width="100" height="76" viewBox="0 0 100 76" fill="none" xmlns="http://www.w3.org/2000/svg">
<g clip-path="url(#clip0_368_7553)">
<path d="M50.0191 37.9808H12.5V5.92041C12.5 5.20537 12.6414 4.49738 12.9162 3.83724C13.191 3.17711 13.5937 2.57787 14.1011 2.07404C14.6085 1.57022 15.2106 1.17177 15.8727 0.901642C16.5347 0.631519 17.2437 0.495065 17.9587 0.500136H44.5604C46.0015 0.500101 47.3841 1.06993 48.4067 2.08534C49.4293 3.10075 50.0089 4.47934 50.0191 5.92041V37.9808Z" fill="#E1DEA3"/>
<path d="M50.0192 75.5H17.9589C17.2406 75.5052 16.5285 75.3675 15.8639 75.0949C15.1993 74.8224 14.5955 74.4205 14.0876 73.9126C13.5797 73.4047 13.1778 72.8009 12.9052 72.1363C12.6327 71.4717 12.495 70.7596 12.5001 70.0413V37.981H50.0192V75.5Z" fill="#ABD3EC"/>
<path d="M82.0797 75.5H50.0193V37.981H82.0797C83.5207 37.9911 84.8993 38.5707 85.9147 39.5933C86.9301 40.6159 87.5 41.9986 87.4999 43.4397V70.0413C87.505 70.7563 87.3685 71.4653 87.0984 72.1274C86.8283 72.7894 86.4299 73.3915 85.926 73.8989C85.4222 74.4063 84.823 74.809 84.1628 75.0838C83.5027 75.3586 82.7947 75.5001 82.0797 75.5Z" fill="#C5AAEE"/>
</g>
<defs>
<clipPath id="clip0_368_7553">
<rect width="99" height="75" fill="white" transform="translate(0.5 0.5)"/>
</clipPath>
</defs>
</svg>
