<svg width="100" height="76" viewBox="0 0 100 76" fill="none" xmlns="http://www.w3.org/2000/svg">
<path d="M38.949 37.6318H17.2481C14.6258 37.6318 12.5 39.7605 12.5 42.3863V64.1162C12.5 66.742 14.6258 68.8707 17.2481 68.8707H38.949C41.5713 68.8707 43.6971 66.742 43.6971 64.1162V42.3863C43.6971 39.7605 41.5713 37.6318 38.949 37.6318Z" fill="#E1DEA3"/>
<path d="M82.7519 44.2612H61.0511C58.4288 44.2612 56.303 46.3899 56.303 49.0157V70.7456C56.303 73.3714 58.4288 75.5001 61.0511 75.5001H82.7519C85.3742 75.5001 87.5 73.3714 87.5 70.7456V49.0157C87.5 46.3899 85.3742 44.2612 82.7519 44.2612Z" fill="#ABD3EC"/>
<path d="M72.2192 0.5H50.5184C47.8961 0.5 45.7703 2.62865 45.7703 5.25447V26.9844C45.7703 29.6102 47.8961 31.7388 50.5184 31.7388H72.2192C74.8415 31.7388 76.9673 29.6102 76.9673 26.9844V5.25447C76.9673 2.62865 74.8415 0.5 72.2192 0.5Z" fill="#C5AAEE"/>
</svg>
