<svg width="100" height="76" viewBox="0 0 100 76" fill="none" xmlns="http://www.w3.org/2000/svg">
<g clip-path="url(#clip0_368_7506)">
<path d="M15.1577 4.6499H63.3215" stroke="#868997" stroke-width="8" stroke-miterlimit="10" stroke-linecap="round"/>
<path d="M15.1577 21.6157H63.3215" stroke="#868997" stroke-width="8" stroke-miterlimit="10" stroke-linecap="round"/>
<path d="M15.1577 38.7139H46.8566" stroke="#868997" stroke-width="8" stroke-miterlimit="10" stroke-linecap="round"/>
<path d="M87.6032 30.5797L84.2769 27.5585C83.4254 26.7797 82.2989 26.3703 81.1451 26.4201C79.9913 26.4699 78.9044 26.9749 78.1234 27.8241L45.4599 63.2823L43.065 73.9064C43.0125 74.1299 43.0205 74.3632 43.0881 74.5826C43.1557 74.802 43.2805 74.9995 43.4497 75.1549C43.6189 75.3102 43.8265 75.418 44.0511 75.4669C44.2757 75.5159 44.5094 75.5044 44.7281 75.4337L55.1392 72.1136L87.836 36.6554C88.6 35.8131 89.0034 34.7057 88.9599 33.5702C88.9164 32.4348 88.4294 31.3614 87.6032 30.5797Z" fill="#868997"/>
<path d="M78.09 47.2796L87.8358 36.7218C88.6202 35.8761 89.0362 34.7543 88.9926 33.6027C88.9489 32.4511 88.4491 31.3638 87.603 30.5797L84.2767 27.5585C83.4252 26.7797 82.2987 26.3703 81.1449 26.4201C79.9911 26.4699 78.9042 26.9749 78.1232 27.8241L68.4106 38.3819L78.09 47.2796Z" fill="#C5AAEE"/>
</g>
<defs>
<clipPath id="clip0_368_7506">
<rect width="78" height="75" fill="white" transform="translate(11 0.5)"/>
</clipPath>
</defs>
</svg>
