<svg width="26" height="36" viewBox="0 0 26 36" fill="none" xmlns="http://www.w3.org/2000/svg">
<g clip-path="url(#clip0_53_441)">
<path d="M10.2944 20.1465C11.011 20.0844 11.5214 19.2354 11.4343 18.2501C11.3472 17.2649 10.6957 16.5165 9.97902 16.5785C9.26236 16.6406 8.75199 17.4896 8.83907 18.4749C8.92616 19.4602 9.57772 20.2086 10.2944 20.1465Z" fill="#868997"/>
<path d="M23.3536 1.27914C23.5323 1.27779 23.7095 1.31146 23.875 1.37823C24.0405 1.44499 24.191 1.54352 24.3179 1.66813C24.4447 1.79275 24.5454 1.94098 24.6141 2.1043C24.6828 2.26761 24.7182 2.44276 24.7182 2.61967V34.7209H22.0096L7.04025 32.9301V5.78169L22.0096 3.9909H4.00089V34.7209H1.29234V2.61967C1.29224 2.26939 1.43066 1.93299 1.67797 1.68246C1.92528 1.43192 2.26183 1.28716 2.6156 1.27914H23.2915M23.2915 0H2.6156C1.91274 -5.26667e-06 1.23852 0.275668 0.740562 0.76666C0.2426 1.25765 -0.0385249 1.92395 -0.0412598 2.61967V36H5.25178V5.22911H5.71699V34.0659L6.85417 34.2092L21.8236 35.9898H25.9587V2.61967C25.956 1.92395 25.6749 1.25765 25.1769 0.76666C24.679 0.275668 24.0047 -5.26667e-06 23.3019 0H23.2915Z" fill="#868997"/>
<path d="M21.8215 34.7943L21.8215 3.956" stroke="#868997" stroke-width="1.3"/>
</g>
<defs>
<clipPath id="clip0_53_441">
<rect width="26" height="36" fill="white"/>
</clipPath>
</defs>
</svg>
