<svg width="55" height="55" viewBox="0 0 55 55" fill="none" xmlns="http://www.w3.org/2000/svg">
<path d="M0 8C0 3.58172 3.58172 0 8 0H47C51.4183 0 55 3.58172 55 8V47C55 51.4183 51.4183 55 47 55H8C3.58172 55 0 51.4183 0 47V8Z" fill="#EAE0F9"/>
<g clip-path="url(#clip0_53_455)">
<path d="M20.4324 13.5381L37.8956 11.4986V46.5432L20.4324 44.5154V13.5381Z" fill="#C5AAEE"/>
<path d="M13.991 9.98351V46.6364H17.1162V11.5102H37.8955V46.6364H41.0208V9.98351C41.0176 9.57753 40.8504 9.18922 40.5554 8.90324C40.2605 8.61725 39.8618 8.45678 39.4462 8.45679H15.5178C15.1106 8.46884 14.724 8.63463 14.4393 8.91933C14.1546 9.20403 13.9939 9.58547 13.991 9.98351Z" fill="#D9D68C"/>
<path d="M25.0384 29.8889C25.8653 29.8183 26.4542 28.8513 26.3537 27.7292C26.2532 26.6071 25.5014 25.7548 24.6745 25.8254C23.8476 25.8961 23.2587 26.8631 23.3592 27.9852C23.4597 29.1073 24.2115 29.9596 25.0384 29.8889Z" fill="#D9D68C"/>
<path d="M24.6647 25.8137L23.9993 25.8706L24.3642 29.9457L25.0296 29.8888L24.6647 25.8137Z" fill="#D9D68C"/>
<path d="M24.3782 29.9446C25.2051 29.8739 25.794 28.907 25.6936 27.7849C25.5931 26.6628 24.8413 25.8104 24.0144 25.8811C23.1874 25.9518 22.5985 26.9187 22.699 28.0408C22.7995 29.1629 23.5513 30.0153 24.3782 29.9446Z" fill="#EFF3C9"/>
<path d="M39.4464 8.45679C39.6526 8.45526 39.8571 8.49361 40.0481 8.56965C40.239 8.64568 40.4127 8.7579 40.5591 8.89982C40.7055 9.04174 40.8216 9.21056 40.9009 9.39656C40.9802 9.58255 41.021 9.78204 41.021 9.98351V46.5432H37.8957L20.6234 44.5037V13.5847L37.8957 11.5452H17.1164V46.5432H13.9912V9.98351C13.9911 9.58459 14.1508 9.20147 14.4361 8.91613C14.7215 8.6308 15.1098 8.46593 15.518 8.45679H39.3749M39.3749 7H15.518C14.707 6.99999 13.9291 7.31396 13.3545 7.87314C12.7799 8.43233 12.4555 9.19117 12.4524 9.98351V48H18.5597V12.9554H19.0965V45.7973L20.4087 45.9605L37.681 47.9883H42.4524V9.98351C42.4492 9.19117 42.1249 8.43233 41.5503 7.87314C40.9757 7.31396 40.1978 6.99999 39.3868 7H39.3749Z" fill="#868997"/>
<path d="M37.6785 46.6268V11.5054" stroke="#868997" stroke-width="1.3"/>
</g>
<defs>
<clipPath id="clip0_53_455">
<rect width="30" height="41" fill="white" transform="translate(12.5 7)"/>
</clipPath>
</defs>
</svg>
