<svg width="36" height="36" viewBox="0 0 36 36" fill="none" xmlns="http://www.w3.org/2000/svg">
<g clip-path="url(#clip0_53_443)">
<path d="M34.0753 1.92487V34.0752H1.92495V26.5188C1.92495 25.6904 2.25405 24.8958 2.83987 24.31C3.42568 23.7242 4.22022 23.3951 5.04869 23.3951H12.6491V15.8057C12.649 14.9791 12.9766 14.1863 13.5601 13.6008C14.1435 13.0153 14.9352 12.6849 15.7618 12.682H23.3402V5.03761C23.3402 4.21206 23.6681 3.42032 24.2519 2.83657C24.8356 2.25282 25.6274 1.92487 26.4529 1.92487H34.0533M34.0533 3.17926e-05H26.4749C25.1397 0.00293748 23.8601 0.534615 22.916 1.47872C21.9719 2.42282 21.4402 3.70246 21.4373 5.03761V10.7131H15.7618C14.4247 10.7161 13.1434 11.2492 12.199 12.1957C11.2546 13.1422 10.7242 14.4247 10.7242 15.7617V21.4262H5.04869C4.38239 21.4277 3.72294 21.5607 3.1082 21.8177C2.49345 22.0747 1.93552 22.4505 1.46643 22.9237C0.997335 23.3969 0.626322 23.9581 0.374689 24.575C0.123057 25.192 -0.00423925 25.8525 0.000107687 26.5188V34.1192C0.00299506 34.6288 0.206716 35.1167 0.56707 35.4771C0.927423 35.8374 1.41534 36.0411 1.92495 36.044H34.0753C34.5858 36.044 35.0754 35.8412 35.4363 35.4803C35.7973 35.1193 36.0001 34.6297 36.0001 34.1192V1.92487C36.0016 1.67169 35.9528 1.42074 35.8566 1.18654C35.7603 0.952353 35.6186 0.73958 35.4396 0.560551C35.2606 0.381522 35.0478 0.239795 34.8136 0.143579C34.5794 0.0473637 34.3284 -0.0014275 34.0753 3.17926e-05H34.0533Z" fill="#868997"/>
</g>
<defs>
<clipPath id="clip0_53_443">
<rect width="36" height="36" fill="white"/>
</clipPath>
</defs>
</svg>
