<svg width="55" height="55" viewBox="0 0 55 55" fill="none" xmlns="http://www.w3.org/2000/svg">
<path d="M0 8C0 3.58172 3.58172 0 8 0H47C51.4183 0 55 3.58172 55 8V47C55 51.4183 51.4183 55 47 55H8C3.58172 55 0 51.4183 0 47V8Z" fill="#EAE0F9"/>
<g clip-path="url(#clip0_53_466)">
<path d="M13.0973 33.4578H21.5543V45.3857H9.63867V36.9164C9.63867 35.9991 10.0031 35.1194 10.6517 34.4708C11.3003 33.8222 12.18 33.4578 13.0973 33.4578Z" fill="#BABBC3"/>
<path d="M33.4579 33.4578H21.5422V45.3735H33.4579V33.4578Z" fill="#868997"/>
<path d="M25.0008 21.5422H33.4579V33.4578H21.5422V25.0008C21.5422 24.0835 21.9066 23.2038 22.5552 22.5552C23.2039 21.9066 24.0836 21.5422 25.0008 21.5422Z" fill="#BABBC3"/>
<path d="M36.9042 9.58984H45.3857V21.5055H33.4456V13.0484C33.4456 12.1312 33.8099 11.2515 34.4586 10.6028C35.1072 9.95423 35.9869 9.58984 36.9042 9.58984Z" fill="#BABBC3"/>
<path d="M45.3612 21.5422H33.4456V33.4578H45.3612V21.5422Z" fill="#868997"/>
<path d="M45.3612 33.4578H33.4456V45.3735H45.3612V33.4578Z" fill="#BABBC3"/>
<path d="M45.3614 9.63875V45.3613H9.63883V36.9654C9.63883 36.0448 10.0045 35.162 10.6554 34.5111C11.3063 33.8602 12.1891 33.4945 13.1097 33.4945H21.5545V25.0619C21.5545 24.1435 21.9185 23.2625 22.5668 22.612C23.215 21.9614 24.0947 21.5943 25.0131 21.5911H33.4335V13.0973C33.4335 12.1801 33.7979 11.3004 34.4465 10.6517C35.0951 10.0031 35.9748 9.63875 36.8921 9.63875H45.337M45.337 7.50004H36.9166C35.433 7.50326 34.0112 8.09402 32.9622 9.14302C31.9132 10.192 31.3225 11.6138 31.3192 13.0973V19.4035H25.0131C23.5275 19.4067 22.1038 19.9992 21.0545 21.0508C20.0051 22.1024 19.4158 23.5274 19.4158 25.013V31.3069H13.1097C12.3693 31.3085 11.6366 31.4563 10.9536 31.7419C10.2705 32.0274 9.65058 32.445 9.12936 32.9708C8.60815 33.4965 8.19591 34.1201 7.91632 34.8056C7.63673 35.4911 7.49529 36.225 7.50012 36.9654V45.4102C7.50333 45.9764 7.72968 46.5186 8.13008 46.919C8.53047 47.3194 9.0726 47.5457 9.63883 47.5489H45.3614C45.9286 47.5489 46.4726 47.3236 46.8737 46.9225C47.2748 46.5214 47.5001 45.9774 47.5001 45.4102V9.63875C47.5017 9.35743 47.4475 9.07859 47.3406 8.81838C47.2337 8.55817 47.0762 8.32176 46.8773 8.12283C46.6784 7.92391 46.442 7.76644 46.1818 7.65953C45.9216 7.55263 45.6427 7.49841 45.3614 7.50004H45.337Z" fill="#868997"/>
</g>
<defs>
<clipPath id="clip0_53_466">
<rect width="40" height="40" fill="white" transform="translate(7.5 7.5)"/>
</clipPath>
</defs>
</svg>
