<svg width="55" height="55" viewBox="0 0 55 55" fill="none" xmlns="http://www.w3.org/2000/svg">
<path d="M0 8C0 3.58172 3.58172 0 8 0H47C51.4183 0 55 3.58172 55 8V47C55 51.4183 51.4183 55 47 55H8C3.58172 55 0 51.4183 0 47V8Z" fill="#EAE0F9"/>
<g clip-path="url(#clip0_53_477)">
<path d="M46.3711 26.2832H8.57866V10.8244C8.57698 10.5891 8.62276 10.3559 8.71333 10.1382C8.8039 9.9205 8.93746 9.72273 9.10624 9.55637C9.27502 9.39001 9.47567 9.25837 9.69651 9.1691C9.91736 9.07983 10.154 9.03471 10.3927 9.03636H44.1162C44.7142 9.03636 45.2878 9.27053 45.7106 9.68734C46.1335 10.1042 46.3711 10.6695 46.3711 11.259V26.2832Z" fill="#D9D68C"/>
<path d="M46.6859 27.2393H8.25098V42.5615H46.6859V27.2393Z" fill="#D9D68C"/>
<path d="M7.59595 48V11.7307C7.61898 10.758 8.0273 9.83266 8.73356 9.15277C9.43983 8.47289 10.388 8.09239 11.3752 8.09265H43.6121C44.5994 8.09239 45.5475 8.47289 46.2538 9.15277C46.96 9.83266 47.3684 10.758 47.3914 11.7307V48" stroke="#868997" stroke-width="1.75" stroke-miterlimit="10"/>
<path d="M8.07471 43.0706H47.3914" stroke="#868997" stroke-width="1.75" stroke-miterlimit="10"/>
<path d="M8.07471 26.7798H47.1395" stroke="#868997" stroke-width="1.75" stroke-miterlimit="10"/>
<path d="M12.4208 25.9513L12.3452 13.1745L16.2378 13.1L16.3008 25.8768L16.2378 25.9513H12.4208Z" fill="#8EB7A4"/>
<path d="M24.9805 25.8651H24.9175L17.2456 15.6089L20.4202 13.2L28.1928 23.419L25.0812 25.8526L24.9805 25.8651Z" fill="#B39BD9"/>
</g>
<defs>
<clipPath id="clip0_53_477">
<rect width="42" height="41" fill="white" transform="translate(6.5 7)"/>
</clipPath>
</defs>
</svg>
