<svg width="36" height="36" viewBox="0 0 36 36" fill="none" xmlns="http://www.w3.org/2000/svg">
<g clip-path="url(#clip0_53_445)">
<path d="M0.939453 36V4.15384C0.959198 3.29968 1.30918 2.48723 1.91455 1.89025C2.51992 1.29328 3.33261 0.959179 4.17881 0.959412H31.8105C32.6567 0.959179 33.4694 1.29328 34.0747 1.89025C34.6801 2.48723 35.0301 3.29968 35.0498 4.15384V36" stroke="#868997" stroke-width="1.75" stroke-miterlimit="10"/>
<path d="M1.34961 31.6717H35.0497" stroke="#868997" stroke-width="1.75" stroke-miterlimit="10"/>
<path d="M1.34961 17.3677H34.8337" stroke="#868997" stroke-width="1.75" stroke-miterlimit="10"/>
<path d="M5.07504 16.6401L5.01025 5.42149L8.34679 5.35608L8.40078 16.5747L8.34679 16.6401H5.07504Z" fill="#868997"/>
<path d="M15.8403 16.5644H15.7863L9.21045 7.55899L11.9315 5.44391L18.5938 14.4167L15.9267 16.5535L15.8403 16.5644Z" fill="#868997"/>
</g>
<defs>
<clipPath id="clip0_53_445">
<rect width="36" height="36" fill="white"/>
</clipPath>
</defs>
</svg>
