<svg width="32" height="36" viewBox="0 0 32 36" fill="none" xmlns="http://www.w3.org/2000/svg">
<g clip-path="url(#clip0_53_449)">
<path d="M27.6101 6.29444C28.331 6.297 29.0215 6.58597 29.5303 7.09806C30.0392 7.61015 30.3249 8.30361 30.3249 9.02654V31.5881C30.3249 32.3101 30.0389 33.0026 29.5298 33.5131C29.0206 34.0237 28.3301 34.3105 27.6101 34.3105H4.40915C3.68825 34.3105 2.99673 34.024 2.48608 33.5137C1.97543 33.0034 1.68726 32.311 1.68472 31.5881V9.02654C1.68472 8.30194 1.97175 7.60702 2.48268 7.09465C2.99361 6.58229 3.68658 6.29444 4.40915 6.29444H27.6101ZM27.6101 4.60498H4.40915C3.23977 4.60498 2.11828 5.07082 1.29141 5.90003C0.464534 6.72923 0 7.85387 0 9.02654V31.5881C0.00254959 32.7591 0.468209 33.8812 1.29481 34.7084C2.12141 35.5355 3.24143 36 4.40915 36H27.6101C28.7761 35.9974 29.8937 35.5318 30.7182 34.705C31.5427 33.8781 32.0071 32.7574 32.0096 31.5881V9.02654C32.0096 7.85554 31.5464 6.73236 30.7216 5.90343C29.8968 5.07451 28.7778 4.60754 27.6101 4.60498Z" fill="#868997"/>
<path d="M8.4717 1.20676C9.05383 1.20676 9.61213 1.43866 10.0238 1.85145C10.4354 2.26424 10.6666 2.82411 10.6666 3.40788V5.107H6.28638V3.40788C6.28511 3.11928 6.3407 2.83327 6.44995 2.56628C6.55921 2.29928 6.71998 2.05655 6.92303 1.85203C7.12608 1.64751 7.36742 1.48523 7.63318 1.37449C7.89895 1.26376 8.1839 1.20676 8.4717 1.20676ZM8.4717 0C7.57208 0.00255569 6.71017 0.362727 6.07494 1.00155C5.43972 1.64038 5.083 2.50573 5.08301 3.40788V6.3041H11.8219V3.40788C11.8219 2.50406 11.4638 1.63725 10.8265 0.998146C10.1892 0.359044 9.32485 0 8.42356 0H8.4717Z" fill="#868997"/>
<path d="M23.9326 1.20676C24.5148 1.20676 25.0731 1.43866 25.4847 1.85145C25.8963 2.26424 26.1276 2.82411 26.1276 3.40788V5.107H21.7184V3.40788C21.7184 3.11719 21.7758 2.82938 21.8873 2.56106C21.9988 2.29275 22.1622 2.04923 22.3681 1.84458C22.574 1.63994 22.8182 1.47821 23.0868 1.36873C23.3553 1.25926 23.6428 1.20421 23.9326 1.20676ZM23.9326 0C23.033 0.00255569 22.1711 0.362727 21.5359 1.00155C20.9007 1.64038 20.5439 2.50573 20.5439 3.40788V6.3041H27.2828V3.40788C27.2829 2.51236 26.9315 1.65278 26.3045 1.01505C25.6776 0.377317 24.8256 0.0126845 23.9326 0Z" fill="#868997"/>
<path d="M1.68481 14.4232H30.3154" stroke="#868997" stroke-width="1.25" stroke-miterlimit="10"/>
<path d="M12.2937 22.9477L15.4995 26.8769L21.1698 19.0958" stroke="#868997" stroke-width="1.75" stroke-linecap="round" stroke-linejoin="round"/>
</g>
<defs>
<clipPath id="clip0_53_449">
<rect width="32" height="36" fill="white"/>
</clipPath>
</defs>
</svg>
