<svg width="55" height="55" viewBox="0 0 55 55" fill="none" xmlns="http://www.w3.org/2000/svg">
<path d="M0 8C0 3.58172 3.58172 0 8 0H47C51.4183 0 55 3.58172 55 8V47C55 51.4183 51.4183 55 47 55H8C3.58172 55 0 51.4183 0 47V8Z" fill="#EAE0F9"/>
<g clip-path="url(#clip0_53_503)">
<path d="M11.8428 23.5258H43.1574V42.6086C43.1574 43.408 42.8457 44.1747 42.2908 44.74C41.736 45.3053 40.9834 45.6228 40.1987 45.6228H14.8016C14.0168 45.6228 13.2643 45.3053 12.7094 44.74C12.1545 44.1747 11.8428 43.408 11.8428 42.6086V23.5258Z" fill="#DBECF7"/>
<path d="M14.6963 14.4938H40.3145C41.0713 14.4938 41.7971 14.8001 42.3322 15.3453C42.8673 15.8904 43.168 16.6298 43.168 17.4008V23.5365H11.8428V17.4008C11.8428 17.019 11.9166 16.641 12.06 16.2883C12.2034 15.9357 12.4136 15.6152 12.6785 15.3453C13.2137 14.8001 13.9395 14.4938 14.6963 14.4938Z" fill="#82BDE3"/>
<path d="M40.1986 14.4938C40.987 14.4967 41.7423 14.8177 42.2988 15.3867C42.8554 15.9557 43.1679 16.7262 43.1679 17.5295V42.5979C43.1679 43.4001 42.855 44.1695 42.2982 44.7368C41.7413 45.3041 40.9861 45.6228 40.1986 45.6228H14.8225C14.034 45.6228 13.2777 45.3045 12.7192 44.7375C12.1606 44.1705 11.8454 43.4011 11.8427 42.5979V17.5295C11.8427 16.7244 12.1566 15.9522 12.7154 15.3829C13.2743 14.8136 14.0322 14.4938 14.8225 14.4938H40.1986ZM40.1986 12.6166H14.8225C13.5435 12.6166 12.3169 13.1342 11.4125 14.0556C10.5081 14.9769 10 16.2265 10 17.5295V42.5979C10.0028 43.899 10.5121 45.1458 11.4162 46.0648C12.3203 46.9839 13.5453 47.5 14.8225 47.5H40.1986C41.4739 47.4972 42.6962 46.9798 43.5981 46.0611C44.4999 45.1423 45.0077 43.8971 45.0105 42.5979V17.5295C45.0105 16.2284 44.5039 14.9804 43.6018 14.0594C42.6997 13.1383 41.4757 12.6195 40.1986 12.6166Z" fill="#868997"/>
<path d="M16.1702 13.8502V11.2865C16.1702 10.4615 16.4919 9.67028 17.0645 9.0869C17.6372 8.50352 18.4139 8.17578 19.2237 8.17578C20.0336 8.17578 20.8103 8.50352 21.3829 9.0869C21.9556 9.67028 22.2773 10.4615 22.2773 11.2865V13.8502H16.1702Z" fill="#D2EAEA"/>
<path d="M19.2659 8.84084C19.9027 8.84084 20.5133 9.09851 20.9635 9.55717C21.4137 10.0158 21.6667 10.6379 21.6667 11.2865V13.1744H16.8758V11.2865C16.8744 10.9659 16.9352 10.6481 17.0547 10.3514C17.1742 10.0548 17.35 9.78506 17.5721 9.55781C17.7942 9.33057 18.0581 9.15025 18.3488 9.02721C18.6395 8.90417 18.9512 8.84084 19.2659 8.84084ZM19.2659 7.5C18.282 7.50284 17.3393 7.90303 16.6445 8.61284C15.9497 9.32264 15.5596 10.2841 15.5596 11.2865V14.5046H22.9302V11.2865C22.9302 10.2823 22.5386 9.31916 21.8415 8.60905C21.1445 7.89894 20.1991 7.5 19.2133 7.5H19.2659Z" fill="#868997"/>
<path d="M33.0911 13.8502V11.2865C33.0911 10.4615 33.4128 9.67028 33.9854 9.0869C34.5581 8.50352 35.3348 8.17578 36.1446 8.17578C36.9545 8.17578 37.7311 8.50352 38.3038 9.0869C38.8765 9.67028 39.1982 10.4615 39.1982 11.2865V13.8502H33.0911Z" fill="#DBECF7"/>
<path d="M36.1763 8.84084C36.8131 8.84084 37.4237 9.09851 37.8739 9.55717C38.3241 10.0158 38.5771 10.6379 38.5771 11.2865V13.1744H33.7546V11.2865C33.7546 10.9636 33.8173 10.6438 33.9393 10.3456C34.0613 10.0475 34.24 9.77693 34.4652 9.54954C34.6903 9.32215 34.9575 9.14245 35.2512 9.02081C35.5449 8.89917 35.8593 8.83801 36.1763 8.84084ZM36.1763 7.5C35.1924 7.50284 34.2497 7.90303 33.5549 8.61284C32.8601 9.32264 32.47 10.2841 32.47 11.2865V14.5046H39.8406V11.2865C39.8407 10.2915 39.4563 9.33642 38.7706 8.62783C38.0849 7.91924 37.153 7.51409 36.1763 7.5Z" fill="#868997"/>
<path d="M11.8428 23.5258H43.1575" stroke="#868997" stroke-width="1.25" stroke-miterlimit="10"/>
<path d="M23.446 32.9974L26.9524 37.3632L33.1542 28.7175" stroke="#868997" stroke-width="1.75" stroke-linecap="round" stroke-linejoin="round"/>
</g>
<defs>
<clipPath id="clip0_53_503">
<rect width="35" height="40" fill="white" transform="translate(10 7.5)"/>
</clipPath>
</defs>
</svg>
