<svg width="36" height="36" viewBox="0 0 36 36" fill="none" xmlns="http://www.w3.org/2000/svg">
<path d="M6.00526 31.8214H15.9927C16.3923 31.8214 16.7756 31.9849 17.0581 32.2759C17.3407 32.5669 17.4994 32.9616 17.4994 33.3731V36H4.49854V33.3731C4.49854 32.9616 4.65728 32.5669 4.93985 32.2759C5.22241 31.9849 5.60565 31.8214 6.00526 31.8214Z" fill="#868997"/>
<path d="M10.9991 32.3756L2.88428 17.08L16.5309 3.12561" stroke="#868997" stroke-width="1.75" stroke-linecap="round" stroke-linejoin="round"/>
<path d="M2.88431 20.4052C4.47726 20.4052 5.76861 19.0753 5.76861 17.4347C5.76861 15.7942 4.47726 14.4643 2.88431 14.4643C1.29135 14.4643 0 15.7942 0 17.4347C0 19.0753 1.29135 20.4052 2.88431 20.4052Z" fill="#868997"/>
<path d="M17.3382 5.94089C18.9311 5.94089 20.2225 4.61097 20.2225 2.97044C20.2225 1.32991 18.9311 0 17.3382 0C15.7452 0 14.4539 1.32991 14.4539 2.97044C14.4539 4.61097 15.7452 5.94089 17.3382 5.94089Z" fill="#868997"/>
<path d="M24.9686 5.14286C26.328 5.1405 27.6687 5.4697 28.8809 6.10351C30.093 6.73732 31.1422 7.65773 31.9426 8.78941L18.0161 19.2303C17.072 17.9083 16.5026 16.3423 16.3714 14.7067C16.2401 13.0712 16.5522 11.4302 17.2729 9.96651C17.9936 8.5028 19.0945 7.27379 20.4532 6.41628C21.812 5.55878 23.3751 5.10643 24.9686 5.1096M24.9686 3.16995C22.7425 3.16504 20.5736 3.89538 18.7803 5.25369C16.5316 6.94693 15.0272 9.48994 14.5974 12.3244C14.1676 15.1589 14.8475 18.0532 16.4879 20.3719C16.7829 20.7879 17.2258 21.0669 17.7197 21.1478C18.2137 21.2288 18.7188 21.1053 19.1247 20.8042L33.0619 10.3633C33.2619 10.214 33.4312 10.0253 33.5601 9.80831C33.689 9.59128 33.7749 9.35013 33.813 9.09875C33.851 8.84736 33.8403 8.59072 33.7816 8.3436C33.7229 8.09648 33.6173 7.86377 33.4708 7.65887C32.4892 6.28643 31.2086 5.17034 29.7319 4.40034C28.2553 3.63033 26.6238 3.22789 24.9686 3.22537V3.16995Z" fill="#868997"/>
</svg>
