<svg width="55" height="55" viewBox="0 0 55 55" fill="none" xmlns="http://www.w3.org/2000/svg">
<path d="M0 8C0 3.58172 3.58172 0 8 0H47C51.4183 0 55 3.58172 55 8V47C55 51.4183 51.4183 55 47 55H8C3.58172 55 0 51.4183 0 47V8Z" fill="#EAE0F9"/>
<g clip-path="url(#clip0_53_490)">
<path d="M13.8395 43.2411H25.2141C25.6692 43.2411 26.1057 43.4273 26.4275 43.7587C26.7493 44.0901 26.9301 44.5396 26.9301 45.0083V48H12.1235V45.0083C12.1235 44.5396 12.3043 44.0901 12.6261 43.7587C12.9479 43.4273 13.3844 43.2411 13.8395 43.2411Z" fill="#868997"/>
<path d="M19.5268 43.8723L10.2849 26.4523L25.8269 10.5598" stroke="#868997" stroke-width="1.75" stroke-linecap="round" stroke-linejoin="round"/>
<path d="M10.2849 30.2392C12.0991 30.2392 13.5698 28.7246 13.5698 26.8562C13.5698 24.9878 12.0991 23.4732 10.2849 23.4732C8.4707 23.4732 7 24.9878 7 26.8562C7 28.7246 8.4707 30.2392 10.2849 30.2392Z" fill="#868997"/>
<path d="M26.7461 13.766C28.5603 13.766 30.031 12.2514 30.031 10.383C30.031 8.51462 28.5603 7 26.7461 7C24.9319 7 23.4612 8.51462 23.4612 10.383C23.4612 12.2514 24.9319 13.766 26.7461 13.766Z" fill="#868997"/>
<path d="M27.5183 30.0499H27.3467C27.0669 30.0017 26.8163 29.8433 26.6481 29.6081C25.4644 27.9345 24.7528 25.9565 24.5919 23.8927C24.431 21.8288 24.827 19.7593 25.7362 17.9126C26.6455 16.0659 28.0326 14.514 29.7443 13.428C31.4561 12.3421 33.426 11.7645 35.4364 11.7589C37.1532 11.7623 38.8451 12.181 40.3759 12.9813C41.9067 13.7816 43.2334 14.9411 44.2493 16.3664C44.4152 16.6052 44.4837 16.9014 44.4402 17.1916C44.3967 17.4818 44.2445 17.7429 44.0164 17.919L28.1435 29.8353C27.9623 29.973 27.7435 30.0481 27.5183 30.0499Z" fill="#DBECF7"/>
<path d="M35.4366 12.8571C36.9848 12.8544 38.5117 13.2294 39.8922 13.9512C41.2727 14.673 42.4676 15.7213 43.3792 17.0101L27.5185 28.9011C26.4432 27.3955 25.7947 25.612 25.6452 23.7493C25.4958 21.8866 25.8512 20.0177 26.672 18.3507C27.4928 16.6837 28.7467 15.284 30.2941 14.3074C31.8415 13.3308 33.6217 12.8156 35.4366 12.8192M35.4366 10.6102C32.9013 10.6046 30.4311 11.4364 28.3887 12.9834C25.8277 14.9118 24.1144 17.808 23.6249 21.0361C23.1354 24.2643 23.9098 27.5606 25.778 30.2013C26.114 30.6751 26.6183 30.9928 27.1809 31.085C27.7435 31.1773 28.3187 31.0366 28.781 30.6936L44.6539 18.8026C44.8817 18.6325 45.0745 18.4177 45.2213 18.1706C45.3681 17.9234 45.466 17.6487 45.5093 17.3624C45.5526 17.0761 45.5404 16.7839 45.4736 16.5024C45.4067 16.221 45.2864 15.9559 45.1197 15.7226C44.0017 14.1595 42.5432 12.8884 40.8614 12.0115C39.1797 11.1345 37.3216 10.6762 35.4366 10.6733V10.6102Z" fill="#868997"/>
<path d="M35.131 31L35.881 34.65" stroke="#D9D68C" stroke-width="2" stroke-linecap="round" stroke-linejoin="round"/>
<path d="M39.8975 29.067L42.3697 31.7961" stroke="#D9D68C" stroke-width="2" stroke-linecap="round" stroke-linejoin="round"/>
<path d="M43 24L46.3094 25.4769" stroke="#D9D68C" stroke-width="2" stroke-linecap="round" stroke-linejoin="round"/>
</g>
<defs>
<clipPath id="clip0_53_490">
<rect width="41" height="41" fill="white" transform="translate(7 7)"/>
</clipPath>
</defs>
</svg>
