<svg width="55" height="55" viewBox="0 0 55 55" fill="none" xmlns="http://www.w3.org/2000/svg">
<path d="M0 8C0 3.58172 3.58172 0 8 0H47C51.4183 0 55 3.58172 55 8V47C55 51.4183 51.4183 55 47 55H8C3.58172 55 0 51.4183 0 47V8Z" fill="#EAE0F9"/>
<g clip-path="url(#clip0_53_529)">
<path d="M12.0548 46.3775C11.1349 46.3775 10.2526 46.0128 9.60109 45.3634C8.94963 44.7139 8.5822 43.8327 8.57935 42.9128V11.8389C8.57935 10.9801 8.92049 10.1565 9.52773 9.54928C10.135 8.94204 10.9586 8.60089 11.8173 8.60089H42.956C43.8749 8.60089 44.7562 8.96592 45.4059 9.61566C46.0557 10.2654 46.4207 11.1467 46.4207 12.0655V43.1395C46.4207 43.9982 46.0795 44.8218 45.4723 45.4291C44.8651 46.0363 44.0415 46.3775 43.1827 46.3775H12.0548Z" fill="#D9D68C"/>
<path d="M42.9559 9.68027C43.5885 9.68027 44.1953 9.93158 44.6426 10.3789C45.0899 10.8262 45.3412 11.433 45.3412 12.0656V43.1395C45.3412 43.712 45.1138 44.2611 44.709 44.6659C44.3042 45.0708 43.7551 45.2982 43.1826 45.2982H12.0547C11.7405 45.2996 11.4292 45.239 11.1385 45.1197C10.8479 45.0005 10.5837 44.825 10.361 44.6034C10.1384 44.3817 9.96171 44.1183 9.84116 43.8282C9.72061 43.5381 9.65856 43.227 9.65856 42.9129V11.8389C9.65856 11.2664 9.88599 10.7174 10.2908 10.3125C10.6956 9.9077 11.2447 9.68027 11.8172 9.68027H42.9559ZM42.9559 7.52161H11.8388C10.6938 7.52161 9.59565 7.97647 8.786 8.78612C7.97634 9.59578 7.52148 10.6939 7.52148 11.8389V42.956C7.53563 44.1509 8.01879 45.2924 8.86679 46.1344C9.71479 46.9763 10.8597 47.4513 12.0547 47.4568H43.1826C44.3276 47.4568 45.4257 47.002 46.2354 46.1923C47.045 45.3827 47.4999 44.2845 47.4999 43.1395V12.044C47.4914 10.8435 47.0092 9.69489 46.1583 8.848C45.3073 8.00111 44.1565 7.52442 42.9559 7.52161Z" fill="#868997"/>
<path d="M15.1201 45.2981V37.9371C15.1201 37.1213 15.4442 36.3389 16.0211 35.762C16.598 35.1851 17.3804 34.861 18.1962 34.861H36.3721C37.1861 34.8639 37.9657 35.1892 38.5403 35.7658C39.1148 36.3424 39.4374 37.1231 39.4374 37.9371V45.2981" fill="#868997"/>
<path d="M15.1201 45.2981V37.9371C15.1201 37.1213 15.4442 36.3389 16.0211 35.762C16.598 35.1851 17.3804 34.861 18.1962 34.861H36.3721C37.1861 34.8639 37.9657 35.1892 38.5403 35.7658C39.1148 36.3424 39.4374 37.1231 39.4374 37.9371V45.2981" stroke="#868997" stroke-width="1.25" stroke-linejoin="round"/>
<path d="M30.8136 16.534H24.2081C22.1515 16.534 20.4844 18.2011 20.4844 20.2577V26.8632C20.4844 28.9197 22.1515 30.5869 24.2081 30.5869H30.8136C32.8701 30.5869 34.5373 28.9197 34.5373 26.8632V20.2577C34.5373 18.2011 32.8701 16.534 30.8136 16.534Z" fill="#868997"/>
<path d="M30.8028 17.2355C31.6129 17.2355 32.3899 17.5574 32.9627 18.1302C33.5355 18.703 33.8573 19.4799 33.8573 20.2901V26.8848C33.8573 27.6949 33.5355 28.4718 32.9627 29.0446C32.3899 29.6175 31.6129 29.9393 30.8028 29.9393H24.2081C23.398 29.9393 22.6211 29.6175 22.0483 29.0446C21.4754 28.4718 21.1536 27.6949 21.1536 26.8848V20.2577C21.1621 19.4532 21.4877 18.6846 22.0596 18.1187C22.6315 17.5529 23.4036 17.2355 24.2081 17.2355H30.8028ZM30.8028 15.8864H24.2081C23.0402 15.8864 21.9201 16.3503 21.0942 17.1762C20.2684 18.002 19.8044 19.1221 19.8044 20.2901V26.8848C19.8102 28.0489 20.2766 29.1635 21.1019 29.9847C21.9271 30.8059 23.0439 31.2669 24.2081 31.2668H30.8028C31.9707 31.2668 33.0908 30.8029 33.9167 29.977C34.7425 29.1512 35.2065 28.0311 35.2065 26.8632V20.2577C35.2065 19.0897 34.7425 17.9697 33.9167 17.1438C33.0908 16.318 31.9707 15.854 30.8028 15.854V15.8864Z" fill="#868997"/>
</g>
<defs>
<clipPath id="clip0_53_529">
<rect width="40" height="40" fill="white" transform="translate(7.5 7.5)"/>
</clipPath>
</defs>
</svg>
