<svg width="36" height="36" viewBox="0 0 36 36" fill="none" xmlns="http://www.w3.org/2000/svg">
<g clip-path="url(#clip0_53_453)">
<path d="M31.9105 1.9622C32.4799 1.9622 33.0259 2.18838 33.4285 2.59098C33.8311 2.99359 34.0573 3.53963 34.0573 4.10899V32.0755C34.0573 32.5908 33.8526 33.085 33.4883 33.4493C33.1239 33.8136 32.6298 34.0183 32.1145 34.0183H4.0994C3.81667 34.0196 3.53646 33.965 3.27488 33.8577C3.0133 33.7504 2.77549 33.5925 2.57511 33.393C2.37473 33.1935 2.21573 32.9564 2.10724 32.6953C1.99875 32.4342 1.9429 32.1543 1.9429 31.8715V3.905C1.9429 3.38974 2.14759 2.89558 2.51193 2.53124C2.87628 2.16689 3.37043 1.9622 3.88569 1.9622H31.9105ZM31.9105 0.0194092H3.90512C2.8746 0.0194092 1.88628 0.428783 1.1576 1.15747C0.428906 1.88616 0.0195312 2.87448 0.0195312 3.905V31.9104C0.0322622 32.9858 0.467107 34.0131 1.23031 34.7709C1.99351 35.5286 3.02393 35.9561 4.0994 35.9611H32.1145C33.145 35.9611 34.1334 35.5518 34.862 34.8231C35.5907 34.0944 36.0001 33.1061 36.0001 32.0755V4.08957C35.9924 3.0091 35.5585 1.97536 34.7926 1.21316C34.0268 0.450961 32.991 0.0219423 31.9105 0.0194092Z" fill="#868997"/>
<path d="M6.85815 34.0184V27.3934C6.85815 26.6592 7.14983 25.955 7.66902 25.4358C8.18822 24.9166 8.89239 24.6249 9.62664 24.6249H25.985C26.7175 24.6275 27.4192 24.9203 27.9363 25.4392C28.4534 25.9581 28.7437 26.6609 28.7437 27.3934V34.0184" fill="#868997"/>
<path d="M20.9823 8.13062H15.0374C13.1865 8.13062 11.686 9.63105 11.686 11.4819V17.4269C11.686 19.2778 13.1865 20.7782 15.0374 20.7782H20.9823C22.8332 20.7782 24.3336 19.2778 24.3336 17.4269V11.4819C24.3336 9.63105 22.8332 8.13062 20.9823 8.13062Z" fill="#868997"/>
</g>
<defs>
<clipPath id="clip0_53_453">
<rect width="36" height="36" fill="white"/>
</clipPath>
</defs>
</svg>
