<svg width="55" height="55" viewBox="0 0 55 55" fill="none" xmlns="http://www.w3.org/2000/svg">
<path d="M0 8C0 3.58172 3.58172 0 8 0H47C51.4183 0 55 3.58172 55 8V47C55 51.4183 51.4183 55 47 55H8C3.58172 55 0 51.4183 0 47V8Z" fill="#EAE0F9"/>
<g clip-path="url(#clip0_53_516)">
<path d="M7.99609 14.3088H47.0151" stroke="#868997" stroke-width="1.75" stroke-linecap="round" stroke-linejoin="round"/>
<path d="M7.99609 27.5576H47.0151" stroke="#868997" stroke-width="1.75" stroke-linecap="round" stroke-linejoin="round"/>
<path d="M7.99609 40.6912H47.0151" stroke="#868997" stroke-width="1.75" stroke-linecap="round" stroke-linejoin="round"/>
<path d="M20.3459 8.21429H14.6181C12.8927 8.21429 11.4939 9.63791 11.4939 11.394V17.2235C11.4939 18.9796 12.8927 20.4032 14.6181 20.4032H20.3459C22.0714 20.4032 23.4702 18.9796 23.4702 17.2235V11.394C23.4702 9.63791 22.0714 8.21429 20.3459 8.21429Z" fill="#82BDE3"/>
<mask id="path-6-inside-1_53_516" fill="white">
<path d="M20.3458 8.94009C20.6634 8.94009 20.9779 9.00394 21.2711 9.12798C21.5644 9.25202 21.8307 9.4338 22.0548 9.66289C22.2788 9.89198 22.4562 10.1639 22.5767 10.4629C22.6972 10.762 22.7584 11.0823 22.7569 11.4055V17.2235C22.7584 17.5467 22.6972 17.8671 22.5767 18.1661C22.4562 18.4652 22.2788 18.737 22.0548 18.9661C21.8307 19.1952 21.5644 19.377 21.2711 19.5011C20.9779 19.6251 20.6634 19.6889 20.3458 19.6889H14.5954C14.2778 19.6889 13.9634 19.6251 13.6701 19.5011C13.3768 19.377 13.1105 19.1952 12.8865 18.9661C12.6625 18.737 12.4851 18.4652 12.3646 18.1661C12.2441 17.8671 12.1828 17.5467 12.1843 17.2235V11.4055C12.1828 11.0823 12.2441 10.762 12.3646 10.4629C12.4851 10.1639 12.6625 9.89198 12.8865 9.66289C13.1105 9.4338 13.3768 9.25202 13.6701 9.12798C13.9634 9.00394 14.2778 8.94009 14.5954 8.94009H20.3232M20.3232 7.5H14.5954C13.5796 7.50305 12.6065 7.91587 11.8893 8.64796C11.1721 9.38006 10.7693 10.3717 10.7694 11.4055V17.2235C10.7664 17.7373 10.8631 18.2467 11.0539 18.7225C11.2447 19.1982 11.5258 19.631 11.8813 19.996C12.2367 20.3609 12.6594 20.6509 13.1251 20.8493C13.5909 21.0477 14.0905 21.1506 14.5954 21.1521H20.3232C21.339 21.149 22.3121 20.7362 23.0293 20.0041C23.7465 19.272 24.1493 18.2804 24.1493 17.2465V11.4055C24.1493 10.3717 23.7465 9.38006 23.0293 8.64796C22.3121 7.91587 21.339 7.50305 20.3232 7.5Z"/>
</mask>
<path d="M20.3458 8.94009C20.6634 8.94009 20.9779 9.00394 21.2711 9.12798C21.5644 9.25202 21.8307 9.4338 22.0548 9.66289C22.2788 9.89198 22.4562 10.1639 22.5767 10.4629C22.6972 10.762 22.7584 11.0823 22.7569 11.4055V17.2235C22.7584 17.5467 22.6972 17.8671 22.5767 18.1661C22.4562 18.4652 22.2788 18.737 22.0548 18.9661C21.8307 19.1952 21.5644 19.377 21.2711 19.5011C20.9779 19.6251 20.6634 19.6889 20.3458 19.6889H14.5954C14.2778 19.6889 13.9634 19.6251 13.6701 19.5011C13.3768 19.377 13.1105 19.1952 12.8865 18.9661C12.6625 18.737 12.4851 18.4652 12.3646 18.1661C12.2441 17.8671 12.1828 17.5467 12.1843 17.2235V11.4055C12.1828 11.0823 12.2441 10.762 12.3646 10.4629C12.4851 10.1639 12.6625 9.89198 12.8865 9.66289C13.1105 9.4338 13.3768 9.25202 13.6701 9.12798C13.9634 9.00394 14.2778 8.94009 14.5954 8.94009H20.3232M20.3232 7.5H14.5954C13.5796 7.50305 12.6065 7.91587 11.8893 8.64796C11.1721 9.38006 10.7693 10.3717 10.7694 11.4055V17.2235C10.7664 17.7373 10.8631 18.2467 11.0539 18.7225C11.2447 19.1982 11.5258 19.631 11.8813 19.996C12.2367 20.3609 12.6594 20.6509 13.1251 20.8493C13.5909 21.0477 14.0905 21.1506 14.5954 21.1521H20.3232C21.339 21.149 22.3121 20.7362 23.0293 20.0041C23.7465 19.272 24.1493 18.2804 24.1493 17.2465V11.4055C24.1493 10.3717 23.7465 9.38006 23.0293 8.64796C22.3121 7.91587 21.339 7.50305 20.3232 7.5Z" fill="#868997"/>
<path d="M22.7569 11.4055L21.7569 11.4009V11.4055H22.7569ZM22.7569 17.2235H21.7569L21.7569 17.2281L22.7569 17.2235ZM20.3458 19.6889L20.3458 18.6889H20.3458V19.6889ZM14.5954 19.6889V18.6889H14.5954L14.5954 19.6889ZM12.1843 17.2235L13.1843 17.2281V17.2235H12.1843ZM12.1843 11.4055H13.1843L13.1843 11.4009L12.1843 11.4055ZM14.5954 8.94009L14.5954 9.94009H14.5954V8.94009ZM20.3232 7.5L20.3262 6.5H20.3232V7.5ZM14.5954 7.5V6.5L14.5924 6.5L14.5954 7.5ZM10.7694 11.4055H11.7694V11.4055L10.7694 11.4055ZM10.7694 17.2235L11.7694 17.2293V17.2235H10.7694ZM14.5954 21.1521L14.5924 22.1521H14.5954V21.1521ZM20.3232 21.1521V22.1521L20.3262 22.1521L20.3232 21.1521ZM24.1493 17.2465H23.1493V17.2465L24.1493 17.2465ZM24.1493 11.4055L23.1493 11.4055V11.4055H24.1493ZM20.3458 8.94009L20.3458 9.94009C20.5292 9.94009 20.7113 9.97694 20.8816 10.049L21.2711 9.12798L21.6607 8.20697C21.2445 8.03094 20.7976 7.94009 20.3458 7.94009L20.3458 8.94009ZM21.2711 9.12798L20.8816 10.049C21.052 10.1211 21.2079 10.2272 21.3398 10.3621L22.0548 9.66289L22.7697 8.96371C22.4536 8.64046 22.0768 8.38299 21.6607 8.20697L21.2711 9.12798ZM22.0548 9.66289L21.3398 10.3621C21.4718 10.497 21.5772 10.6582 21.6491 10.8367L22.5767 10.4629L23.5042 10.0892C23.3351 9.66955 23.0858 9.28692 22.7697 8.96371L22.0548 9.66289ZM22.5767 10.4629L21.6491 10.8367C21.7211 11.0152 21.7578 11.207 21.7569 11.4009L22.7569 11.4055L23.7569 11.4101C23.759 10.9576 23.6733 10.5088 23.5042 10.0892L22.5767 10.4629ZM22.7569 11.4055H21.7569V17.2235H22.7569H23.7569V11.4055H22.7569ZM22.7569 17.2235L21.7569 17.2281C21.7578 17.422 21.7211 17.6139 21.6491 17.7924L22.5767 18.1661L23.5042 18.5399C23.6733 18.1203 23.759 17.6714 23.7569 17.2189L22.7569 17.2235ZM22.5767 18.1661L21.6491 17.7924C21.5772 17.9709 21.4718 18.132 21.3398 18.267L22.0548 18.9661L22.7697 19.6653C23.0858 19.3421 23.3351 18.9595 23.5042 18.5399L22.5767 18.1661ZM22.0548 18.9661L21.3398 18.267C21.2079 18.4019 21.052 18.508 20.8816 18.58L21.2711 19.5011L21.6607 20.4221C22.0768 20.246 22.4536 19.9886 22.7697 19.6653L22.0548 18.9661ZM21.2711 19.5011L20.8816 18.58C20.7113 18.6521 20.5292 18.6889 20.3458 18.6889L20.3458 19.6889L20.3458 20.6889C20.7976 20.6889 21.2445 20.5981 21.6607 20.4221L21.2711 19.5011ZM20.3458 19.6889V18.6889H14.5954V19.6889V20.6889H20.3458V19.6889ZM14.5954 19.6889L14.5954 18.6889C14.412 18.6889 14.23 18.6521 14.0597 18.58L13.6701 19.5011L13.2806 20.4221C13.6968 20.5981 14.1437 20.6889 14.5954 20.6889L14.5954 19.6889ZM13.6701 19.5011L14.0597 18.58C13.8893 18.508 13.7334 18.4019 13.6014 18.267L12.8865 18.9661L12.1716 19.6653C12.4877 19.9886 12.8644 20.246 13.2806 20.4221L13.6701 19.5011ZM12.8865 18.9661L13.6014 18.267C13.4695 18.132 13.3641 17.9709 13.2921 17.7924L12.3646 18.1661L11.4371 18.5399C11.6061 18.9595 11.8555 19.3421 12.1716 19.6653L12.8865 18.9661ZM12.3646 18.1661L13.2921 17.7924C13.2202 17.6139 13.1834 17.422 13.1843 17.2281L12.1843 17.2235L11.1843 17.2189C11.1822 17.6714 11.268 18.1203 11.4371 18.5399L12.3646 18.1661ZM12.1843 17.2235H13.1843V11.4055H12.1843H11.1843V17.2235H12.1843ZM12.1843 11.4055L13.1843 11.4009C13.1834 11.207 13.2202 11.0152 13.2921 10.8367L12.3646 10.4629L11.4371 10.0892C11.268 10.5088 11.1822 10.9576 11.1843 11.4101L12.1843 11.4055ZM12.3646 10.4629L13.2921 10.8367C13.3641 10.6582 13.4695 10.497 13.6014 10.3621L12.8865 9.66289L12.1716 8.96371C11.8555 9.28693 11.6061 9.66956 11.4371 10.0892L12.3646 10.4629ZM12.8865 9.66289L13.6014 10.3621C13.7334 10.2272 13.8893 10.1211 14.0597 10.049L13.6701 9.12798L13.2806 8.20697C12.8644 8.38299 12.4877 8.64046 12.1716 8.96371L12.8865 9.66289ZM13.6701 9.12798L14.0597 10.049C14.23 9.97694 14.412 9.94009 14.5954 9.94009L14.5954 8.94009L14.5954 7.94009C14.1437 7.94009 13.6968 8.03094 13.2806 8.20697L13.6701 9.12798ZM14.5954 8.94009V9.94009H20.3232V8.94009V7.94009H14.5954V8.94009ZM20.3232 7.5V6.5H14.5954V7.5V8.5H20.3232V7.5ZM14.5954 7.5L14.5924 6.5C13.3062 6.50387 12.0776 7.02673 11.175 7.94816L11.8893 8.64796L12.6036 9.34777C13.1354 8.805 13.8531 8.50223 14.5984 8.5L14.5954 7.5ZM11.8893 8.64796L11.175 7.94816C10.2729 8.869 9.76935 10.1126 9.76935 11.4055L10.7694 11.4055L11.7694 11.4055C11.7694 10.6308 12.0713 9.89113 12.6036 9.34777L11.8893 8.64796ZM10.7694 11.4055H9.76935V17.2235H10.7694H11.7694V11.4055H10.7694ZM10.7694 17.2235L9.76937 17.2177C9.76564 17.8607 9.8866 18.4985 10.1257 19.0947L11.0539 18.7225L11.982 18.3503C11.8395 17.995 11.7671 17.614 11.7693 17.2293L10.7694 17.2235ZM11.0539 18.7225L10.1257 19.0947C10.3649 19.691 10.7177 20.2345 11.1649 20.6937L11.8813 19.996L12.5977 19.2983C12.334 19.0275 12.1245 18.7055 11.982 18.3503L11.0539 18.7225ZM11.8813 19.996L11.1649 20.6937C11.6121 21.1528 12.1449 21.5187 12.7333 21.7693L13.1251 20.8493L13.517 19.9293C13.1739 19.7831 12.8613 19.569 12.5977 19.2983L11.8813 19.996ZM13.1251 20.8493L12.7333 21.7693C13.3217 22.0199 13.9535 22.1502 14.5924 22.1521L14.5954 21.1521L14.5984 20.1521C14.2276 20.151 13.8601 20.0754 13.517 19.9293L13.1251 20.8493ZM14.5954 21.1521V22.1521H20.3232V21.1521V20.1521H14.5954V21.1521ZM20.3232 21.1521L20.3262 22.1521C21.6124 22.1482 22.841 21.6253 23.7437 20.7039L23.0293 20.0041L22.315 19.3043C21.7833 19.8471 21.0655 20.1498 20.3202 20.1521L20.3232 21.1521ZM23.0293 20.0041L23.7437 20.7039C24.6458 19.7831 25.1493 18.5395 25.1493 17.2465L24.1493 17.2465L23.1493 17.2465C23.1493 18.0213 22.8473 18.7609 22.315 19.3043L23.0293 20.0041ZM24.1493 17.2465H25.1493V11.4055H24.1493H23.1493V17.2465H24.1493ZM24.1493 11.4055L25.1493 11.4055C25.1493 10.1126 24.6458 8.869 23.7437 7.94816L23.0293 8.64796L22.315 9.34777C22.8473 9.89113 23.1493 10.6308 23.1493 11.4055L24.1493 11.4055ZM23.0293 8.64796L23.7437 7.94816C22.841 7.02673 21.6124 6.50387 20.3262 6.5L20.3232 7.5L20.3202 8.5C21.0655 8.50223 21.7833 8.805 22.315 9.34777L23.0293 8.64796Z" fill="#868997" mask="url(#path-6-inside-1_53_516)"/>
<path d="M20.3572 34.5968H14.6068C12.8876 34.5968 11.4939 36.0153 11.4939 37.765V43.6175C11.4939 45.3673 12.8876 46.7857 14.6068 46.7857H20.3572C22.0765 46.7857 23.4702 45.3673 23.4702 43.6175V37.765C23.4702 36.0153 22.0765 34.5968 20.3572 34.5968Z" fill="#D9D68C"/>
<mask id="path-9-inside-2_53_516" fill="white">
<path d="M20.3572 35.3226C20.9937 35.3226 21.6041 35.5799 22.0541 36.038C22.5042 36.496 22.757 37.1172 22.757 37.765V43.6175C22.757 44.2653 22.5042 44.8865 22.0541 45.3446C21.6041 45.8026 20.9937 46.0599 20.3572 46.0599H14.5955C13.959 46.0599 13.3487 45.8026 12.8986 45.3446C12.4486 44.8865 12.1957 44.2653 12.1957 43.6175V37.765C12.1957 37.1172 12.4486 36.496 12.8986 36.038C13.3487 35.5799 13.959 35.3226 14.5955 35.3226H20.3459M20.3459 33.8825H14.5955C13.5838 33.8825 12.6135 34.2915 11.8981 35.0197C11.1827 35.7478 10.7808 36.7353 10.7808 37.765V43.6175C10.7808 44.1274 10.8794 44.6322 11.0711 45.1033C11.2628 45.5743 11.5438 46.0023 11.8981 46.3629C12.2523 46.7234 12.6728 47.0094 13.1357 47.2045C13.5985 47.3996 14.0945 47.5 14.5955 47.5H20.3459C20.8469 47.5 21.3429 47.3996 21.8058 47.2045C22.2686 47.0094 22.6891 46.7234 23.0434 46.3629C23.3976 46.0023 23.6786 45.5743 23.8703 45.1033C24.062 44.6322 24.1607 44.1274 24.1607 43.6175V37.765C24.1607 36.7353 23.7588 35.7478 23.0434 35.0197C22.3279 34.2915 21.3577 33.8825 20.3459 33.8825Z"/>
</mask>
<path d="M20.3572 35.3226C20.9937 35.3226 21.6041 35.5799 22.0541 36.038C22.5042 36.496 22.757 37.1172 22.757 37.765V43.6175C22.757 44.2653 22.5042 44.8865 22.0541 45.3446C21.6041 45.8026 20.9937 46.0599 20.3572 46.0599H14.5955C13.959 46.0599 13.3487 45.8026 12.8986 45.3446C12.4486 44.8865 12.1957 44.2653 12.1957 43.6175V37.765C12.1957 37.1172 12.4486 36.496 12.8986 36.038C13.3487 35.5799 13.959 35.3226 14.5955 35.3226H20.3459M20.3459 33.8825H14.5955C13.5838 33.8825 12.6135 34.2915 11.8981 35.0197C11.1827 35.7478 10.7808 36.7353 10.7808 37.765V43.6175C10.7808 44.1274 10.8794 44.6322 11.0711 45.1033C11.2628 45.5743 11.5438 46.0023 11.8981 46.3629C12.2523 46.7234 12.6728 47.0094 13.1357 47.2045C13.5985 47.3996 14.0945 47.5 14.5955 47.5H20.3459C20.8469 47.5 21.3429 47.3996 21.8058 47.2045C22.2686 47.0094 22.6891 46.7234 23.0434 46.3629C23.3976 46.0023 23.6786 45.5743 23.8703 45.1033C24.062 44.6322 24.1607 44.1274 24.1607 43.6175V37.765C24.1607 36.7353 23.7588 35.7478 23.0434 35.0197C22.3279 34.2915 21.3577 33.8825 20.3459 33.8825Z" fill="#868997"/>
<path d="M22.757 43.6175H21.757H22.757ZM14.5955 46.0599V45.0599V46.0599ZM12.1957 43.6175H11.1957H12.1957ZM12.1957 37.765H11.1957H12.1957ZM20.3459 33.8825V32.8825V33.8825ZM14.5955 33.8825V32.8825V33.8825ZM10.7808 43.6175H11.7808H10.7808ZM14.5955 47.5V48.5V47.5ZM20.3459 47.5V48.5V47.5ZM24.1607 37.765H25.1607H24.1607ZM20.3572 35.3226V36.3226C20.7227 36.3226 21.0769 36.4702 21.3408 36.7388L22.0541 36.038L22.7674 35.3371C22.1313 34.6896 21.2647 34.3226 20.3572 34.3226V35.3226ZM22.0541 36.038L21.3408 36.7388C21.6053 37.008 21.757 37.3768 21.757 37.765H22.757H23.757C23.757 36.8576 23.403 35.984 22.7674 35.3371L22.0541 36.038ZM22.757 37.765H21.757V43.6175H22.757H23.757V37.765H22.757ZM22.757 43.6175H21.757C21.757 44.0057 21.6053 44.3745 21.3408 44.6437L22.0541 45.3446L22.7674 46.0454C23.403 45.3985 23.757 44.5249 23.757 43.6175H22.757ZM22.0541 45.3446L21.3408 44.6437C21.0769 44.9123 20.7227 45.0599 20.3572 45.0599V46.0599V47.0599C21.2647 47.0599 22.1313 46.6929 22.7674 46.0454L22.0541 45.3446ZM20.3572 46.0599V45.0599H14.5955V46.0599V47.0599H20.3572V46.0599ZM14.5955 46.0599V45.0599C14.23 45.0599 13.8758 44.9123 13.6119 44.6437L12.8986 45.3446L12.1853 46.0454C12.8215 46.6929 13.6881 47.0599 14.5955 47.0599V46.0599ZM12.8986 45.3446L13.6119 44.6437C13.3474 44.3745 13.1957 44.0057 13.1957 43.6175H12.1957H11.1957C11.1957 44.5249 11.5497 45.3985 12.1853 46.0454L12.8986 45.3446ZM12.1957 43.6175H13.1957V37.765H12.1957H11.1957V43.6175H12.1957ZM12.1957 37.765H13.1957C13.1957 37.3768 13.3474 37.008 13.6119 36.7388L12.8986 36.038L12.1853 35.3371C11.5497 35.984 11.1957 36.8576 11.1957 37.765H12.1957ZM12.8986 36.038L13.6119 36.7388C13.8758 36.4702 14.23 36.3226 14.5955 36.3226V35.3226V34.3226C13.6881 34.3226 12.8215 34.6896 12.1853 35.3371L12.8986 36.038ZM14.5955 35.3226V36.3226H20.3459V35.3226V34.3226H14.5955V35.3226ZM20.3459 33.8825V32.8825H14.5955V33.8825V34.8825H20.3459V33.8825ZM14.5955 33.8825V32.8825C13.3128 32.8825 12.0863 33.4013 11.1848 34.3188L11.8981 35.0197L12.6114 35.7205C13.1406 35.1818 13.8547 34.8825 14.5955 34.8825V33.8825ZM11.8981 35.0197L11.1848 34.3188C10.2838 35.2357 9.78076 36.4757 9.78076 37.765H10.7808H11.7808C11.7808 36.9949 12.0815 36.2598 12.6114 35.7205L11.8981 35.0197ZM10.7808 37.765H9.78076V43.6175H10.7808H11.7808V37.765H10.7808ZM10.7808 43.6175H9.78076C9.78076 44.2563 9.90435 44.8892 10.1449 45.4803L11.0711 45.1033L11.9974 44.7263C11.8545 44.3753 11.7808 43.9985 11.7808 43.6175H10.7808ZM11.0711 45.1033L10.1449 45.4803C10.3855 46.0713 10.7385 46.6096 11.1848 47.0637L11.8981 46.3629L12.6114 45.662C12.3491 45.3951 12.1402 45.0773 11.9974 44.7263L11.0711 45.1033ZM11.8981 46.3629L11.1848 47.0637C11.631 47.5179 12.1618 47.8792 12.7472 48.1259L13.1357 47.2045L13.5241 46.283C13.1839 46.1396 12.8736 45.9289 12.6114 45.662L11.8981 46.3629ZM13.1357 47.2045L12.7472 48.1259C13.3326 48.3727 13.9607 48.5 14.5955 48.5V47.5V46.5C14.2283 46.5 13.8643 46.4264 13.5241 46.283L13.1357 47.2045ZM14.5955 47.5V48.5H20.3459V47.5V46.5H14.5955V47.5ZM20.3459 47.5V48.5C20.9807 48.5 21.6088 48.3727 22.1942 48.1259L21.8058 47.2045L21.4173 46.283C21.0771 46.4264 20.7131 46.5 20.3459 46.5V47.5ZM21.8058 47.2045L22.1942 48.1259C22.7796 47.8792 23.3104 47.5179 23.7567 47.0637L23.0434 46.3629L22.33 45.662C22.0679 45.9289 21.7575 46.1396 21.4173 46.283L21.8058 47.2045ZM23.0434 46.3629L23.7567 47.0637C24.2029 46.6096 24.5559 46.0713 24.7965 45.4803L23.8703 45.1033L22.9441 44.7263C22.8012 45.0773 22.5923 45.3951 22.33 45.662L23.0434 46.3629ZM23.8703 45.1033L24.7965 45.4803C25.0371 44.8892 25.1607 44.2563 25.1607 43.6175H24.1607H23.1607C23.1607 43.9985 23.0869 44.3753 22.9441 44.7263L23.8703 45.1033ZM24.1607 43.6175H25.1607V37.765H24.1607H23.1607V43.6175H24.1607ZM24.1607 37.765H25.1607C25.1607 36.4757 24.6576 35.2357 23.7567 34.3188L23.0434 35.0197L22.33 35.7205C22.8599 36.2598 23.1607 36.9949 23.1607 37.765H24.1607ZM23.0434 35.0197L23.7567 34.3188C22.8551 33.4013 21.6286 32.8825 20.3459 32.8825V33.8825V34.8825C21.0867 34.8825 21.8008 35.1818 22.33 35.7205L23.0434 35.0197Z" fill="#868997" mask="url(#path-9-inside-2_53_516)"/>
<path d="M34.6879 33.6521C34.3029 33.6521 33.9217 33.5749 33.566 33.425C33.2102 33.275 32.887 33.0552 32.6148 32.7781C32.3426 32.5011 32.1266 32.1721 31.9793 31.8101C31.8319 31.4481 31.7561 31.0601 31.7561 30.6682V24.6083C31.7561 23.7772 32.0805 22.9802 32.6579 22.3925C33.2353 21.8048 34.0185 21.4747 34.8351 21.4747H40.7892C41.5668 21.4747 42.3125 21.789 42.8623 22.3486C43.4121 22.9082 43.721 23.6672 43.721 24.4585V30.6682C43.721 31.4596 43.4121 32.2186 42.8623 32.7781C42.3125 33.3377 41.5668 33.6521 40.7892 33.6521H34.6879Z" fill="#C5AAEE"/>
<mask id="path-12-inside-3_53_516" fill="white">
<path d="M40.7892 22.1889C41.3897 22.1889 41.9655 22.4317 42.3901 22.8638C42.8147 23.2959 43.0532 23.882 43.0532 24.4931V30.7028C43.0532 31.3139 42.8147 31.8999 42.3901 32.332C41.9655 32.7641 41.3897 33.0069 40.7892 33.0069H34.6879C34.0875 33.0069 33.5116 32.7641 33.0871 32.332C32.6625 31.8999 32.424 31.3139 32.424 30.7028V24.6083C32.424 23.9666 32.6744 23.3513 33.1202 22.8975C33.566 22.4438 34.1707 22.1889 34.8011 22.1889H40.7553M40.7553 20.7488H34.8351C33.8293 20.7488 32.8648 21.1555 32.1537 21.8792C31.4425 22.603 31.043 23.5847 31.043 24.6083V30.6682C31.046 31.6511 31.4309 32.5929 32.1138 33.288C32.7968 33.983 33.7221 34.3748 34.6879 34.3779H40.7892C41.755 34.3748 42.6804 33.983 43.3633 33.288C44.0462 32.5929 44.4312 31.6511 44.4342 30.6682V24.4585C44.4312 23.4756 44.0462 22.5338 43.3633 21.8387C42.6804 21.1437 41.755 20.7519 40.7892 20.7488H40.7553Z"/>
</mask>
<path d="M40.7892 22.1889C41.3897 22.1889 41.9655 22.4317 42.3901 22.8638C42.8147 23.2959 43.0532 23.882 43.0532 24.4931V30.7028C43.0532 31.3139 42.8147 31.8999 42.3901 32.332C41.9655 32.7641 41.3897 33.0069 40.7892 33.0069H34.6879C34.0875 33.0069 33.5116 32.7641 33.0871 32.332C32.6625 31.8999 32.424 31.3139 32.424 30.7028V24.6083C32.424 23.9666 32.6744 23.3513 33.1202 22.8975C33.566 22.4438 34.1707 22.1889 34.8011 22.1889H40.7553M40.7553 20.7488H34.8351C33.8293 20.7488 32.8648 21.1555 32.1537 21.8792C31.4425 22.603 31.043 23.5847 31.043 24.6083V30.6682C31.046 31.6511 31.4309 32.5929 32.1138 33.288C32.7968 33.983 33.7221 34.3748 34.6879 34.3779H40.7892C41.755 34.3748 42.6804 33.983 43.3633 33.288C44.0462 32.5929 44.4312 31.6511 44.4342 30.6682V24.4585C44.4312 23.4756 44.0462 22.5338 43.3633 21.8387C42.6804 21.1437 41.755 20.7519 40.7892 20.7488H40.7553Z" fill="#868997"/>
<path d="M34.8011 22.1889V21.1889V22.1889ZM34.8351 20.7488V21.7488V20.7488ZM31.043 24.6083H32.043H31.043ZM31.043 30.6682H30.043L30.043 30.6712L31.043 30.6682ZM34.6879 34.3779L34.6848 35.3779H34.6879V34.3779ZM40.7892 34.3779V35.3779L40.7924 35.3779L40.7892 34.3779ZM44.4342 30.6682L45.4342 30.6712V30.6682H44.4342ZM44.4342 24.4585H45.4342L45.4342 24.4555L44.4342 24.4585ZM40.7892 20.7488L40.7924 19.7488H40.7892V20.7488ZM40.7892 22.1889V23.1889C41.1187 23.1889 41.4383 23.322 41.6768 23.5647L42.3901 22.8638L43.1034 22.1629C42.4927 21.5414 41.6606 21.1889 40.7892 21.1889V22.1889ZM42.3901 22.8638L41.6768 23.5647C41.9158 23.8079 42.0532 24.1416 42.0532 24.4931H43.0532H44.0532C44.0532 23.6224 43.7135 22.7839 43.1034 22.1629L42.3901 22.8638ZM43.0532 24.4931H42.0532V30.7028H43.0532H44.0532V24.4931H43.0532ZM43.0532 30.7028H42.0532C42.0532 31.0543 41.9158 31.3879 41.6768 31.6312L42.3901 32.332L43.1034 33.0329C43.7135 32.4119 44.0532 31.5734 44.0532 30.7028H43.0532ZM42.3901 32.332L41.6768 31.6312C41.4383 31.8739 41.1187 32.0069 40.7892 32.0069V33.0069V34.0069C41.6606 34.0069 42.4927 33.6544 43.1034 33.0329L42.3901 32.332ZM40.7892 33.0069V32.0069H34.6879V33.0069V34.0069H40.7892V33.0069ZM34.6879 33.0069V32.0069C34.3584 32.0069 34.0388 31.8739 33.8004 31.6312L33.0871 32.332L32.3738 33.0329C32.9845 33.6544 33.8165 34.0069 34.6879 34.0069V33.0069ZM33.0871 32.332L33.8004 31.6312C33.5613 31.3879 33.424 31.0543 33.424 30.7028H32.424H31.424C31.424 31.5734 31.7637 32.4119 32.3738 33.0329L33.0871 32.332ZM32.424 30.7028H33.424V24.6083H32.424H31.424V30.7028H32.424ZM32.424 24.6083H33.424C33.424 24.2262 33.5733 23.8633 33.8335 23.5984L33.1202 22.8975L32.4069 22.1967C31.7756 22.8392 31.424 23.707 31.424 24.6083H32.424ZM33.1202 22.8975L33.8335 23.5984C34.0932 23.3341 34.4416 23.1889 34.8011 23.1889V22.1889V21.1889C33.8997 21.1889 33.0388 21.5535 32.4069 22.1967L33.1202 22.8975ZM34.8011 22.1889V23.1889H40.7553V22.1889V21.1889H34.8011V22.1889ZM40.7553 20.7488V19.7488H34.8351V20.7488V21.7488H40.7553V20.7488ZM34.8351 20.7488V19.7488C33.5584 19.7488 32.3376 20.2652 31.4403 21.1784L32.1537 21.8792L32.867 22.5801C33.392 22.0457 34.1003 21.7488 34.8351 21.7488V20.7488ZM32.1537 21.8792L31.4403 21.1784C30.5437 22.091 30.043 23.3251 30.043 24.6083H31.043H32.043C32.043 23.8443 32.3413 23.1151 32.867 22.5801L32.1537 21.8792ZM31.043 24.6083H30.043V30.6682H31.043H32.043V24.6083H31.043ZM31.043 30.6682L30.043 30.6712C30.0467 31.9127 30.5328 33.1057 31.4005 33.9888L32.1138 33.288L32.8271 32.5871C32.329 32.0802 32.0452 31.3895 32.043 30.6652L31.043 30.6682ZM32.1138 33.288L31.4005 33.9888C32.2688 34.8725 33.4491 35.374 34.6848 35.3779L34.6879 34.3779L34.6911 33.3779C33.9951 33.3757 33.3247 33.0935 32.8271 32.5871L32.1138 33.288ZM34.6879 34.3779V35.3779H40.7892V34.3779V33.3779H34.6879V34.3779ZM40.7892 34.3779L40.7924 35.3779C42.028 35.374 43.2083 34.8725 44.0766 33.9888L43.3633 33.288L42.65 32.5871C42.1525 33.0935 41.482 33.3757 40.7861 33.3779L40.7892 34.3779ZM43.3633 33.288L44.0766 33.9888C44.9443 33.1057 45.4304 31.9127 45.4342 30.6712L44.4342 30.6682L43.4342 30.6652C43.432 31.3895 43.1481 32.0802 42.65 32.5871L43.3633 33.288ZM44.4342 30.6682H45.4342V24.4585H44.4342H43.4342V30.6682H44.4342ZM44.4342 24.4585L45.4342 24.4555C45.4304 23.214 44.9443 22.021 44.0766 21.1379L43.3633 21.8387L42.65 22.5396C43.1481 23.0466 43.432 23.7372 43.4342 24.4616L44.4342 24.4585ZM43.3633 21.8387L44.0766 21.1379C43.2083 20.2542 42.028 19.7527 40.7924 19.7488L40.7892 20.7488L40.7861 21.7488C41.482 21.751 42.1525 22.0332 42.65 22.5396L43.3633 21.8387ZM40.7892 20.7488V19.7488H40.7553V20.7488V21.7488H40.7892V20.7488Z" fill="#868997" mask="url(#path-12-inside-3_53_516)"/>
</g>
<defs>
<clipPath id="clip0_53_516">
<rect width="41" height="40" fill="white" transform="translate(7 7.5)"/>
</clipPath>
</defs>
</svg>
