<svg width="36" height="36" viewBox="0 0 36 36" fill="none" xmlns="http://www.w3.org/2000/svg">
<g clip-path="url(#clip0_53_451)">
<path d="M0.874756 6.12787H35.1354" stroke="#868997" stroke-width="1.75" stroke-linecap="round" stroke-linejoin="round"/>
<path d="M0.874756 18.0518H35.1354" stroke="#868997" stroke-width="1.75" stroke-linecap="round" stroke-linejoin="round"/>
<path d="M0.874756 29.8721H35.1354" stroke="#868997" stroke-width="1.75" stroke-linecap="round" stroke-linejoin="round"/>
<path d="M11.7183 0.642883H6.68904C5.17399 0.642883 3.9458 1.92413 3.9458 3.50463V8.75118C3.9458 10.3317 5.17399 11.6129 6.68904 11.6129H11.7183C13.2333 11.6129 14.4615 10.3317 14.4615 8.75118V3.50463C14.4615 1.92413 13.2333 0.642883 11.7183 0.642883Z" fill="#FAFCFE"/>
<mask id="path-5-inside-1_53_451" fill="white">
<path d="M11.7185 1.29608C11.9973 1.29608 12.2734 1.35354 12.531 1.46518C12.7885 1.57682 13.0223 1.74042 13.219 1.9466C13.4157 2.15278 13.5715 2.39748 13.6773 2.66662C13.7831 2.93577 13.8369 3.22408 13.8356 3.51498V8.75115C13.8369 9.04205 13.7831 9.33035 13.6773 9.5995C13.5715 9.86865 13.4157 10.1133 13.219 10.3195C13.0223 10.5257 12.7885 10.6893 12.531 10.8009C12.2734 10.9126 11.9973 10.97 11.7185 10.97H6.66934C6.39049 10.97 6.11438 10.9126 5.85688 10.8009C5.59937 10.6893 5.36555 10.5257 5.16883 10.3195C4.97211 10.1133 4.81638 9.86865 4.71057 9.5995C4.60477 9.33035 4.55097 9.04205 4.55228 8.75115V3.51498C4.55097 3.22408 4.60477 2.93577 4.71057 2.66662C4.81638 2.39748 4.97211 2.15278 5.16883 1.9466C5.36555 1.74042 5.59937 1.57682 5.85688 1.46518C6.11438 1.35354 6.39049 1.29608 6.66934 1.29608H11.6986M11.6986 0H6.66934C5.77744 0.00274465 4.92297 0.374279 4.29324 1.03317C3.6635 1.69206 3.30987 2.58454 3.30987 3.51498V8.75115C3.30726 9.21361 3.39215 9.67207 3.55968 10.1002C3.72722 10.5284 3.9741 10.9179 4.28619 11.2464C4.59827 11.5748 4.96943 11.8358 5.37837 12.0144C5.78732 12.1929 6.22603 12.2855 6.66934 12.2869H11.6986C12.5905 12.2841 13.445 11.9126 14.0747 11.2537C14.7045 10.5948 15.0581 9.70232 15.0581 8.77189V3.51498C15.0581 2.58454 14.7045 1.69206 14.0747 1.03317C13.445 0.374279 12.5905 0.00274465 11.6986 0Z"/>
</mask>
<path d="M11.7185 1.29608C11.9973 1.29608 12.2734 1.35354 12.531 1.46518C12.7885 1.57682 13.0223 1.74042 13.219 1.9466C13.4157 2.15278 13.5715 2.39748 13.6773 2.66662C13.7831 2.93577 13.8369 3.22408 13.8356 3.51498V8.75115C13.8369 9.04205 13.7831 9.33035 13.6773 9.5995C13.5715 9.86865 13.4157 10.1133 13.219 10.3195C13.0223 10.5257 12.7885 10.6893 12.531 10.8009C12.2734 10.9126 11.9973 10.97 11.7185 10.97H6.66934C6.39049 10.97 6.11438 10.9126 5.85688 10.8009C5.59937 10.6893 5.36555 10.5257 5.16883 10.3195C4.97211 10.1133 4.81638 9.86865 4.71057 9.5995C4.60477 9.33035 4.55097 9.04205 4.55228 8.75115V3.51498C4.55097 3.22408 4.60477 2.93577 4.71057 2.66662C4.81638 2.39748 4.97211 2.15278 5.16883 1.9466C5.36555 1.74042 5.59937 1.57682 5.85688 1.46518C6.11438 1.35354 6.39049 1.29608 6.66934 1.29608H11.6986M11.6986 0H6.66934C5.77744 0.00274465 4.92297 0.374279 4.29324 1.03317C3.6635 1.69206 3.30987 2.58454 3.30987 3.51498V8.75115C3.30726 9.21361 3.39215 9.67207 3.55968 10.1002C3.72722 10.5284 3.9741 10.9179 4.28619 11.2464C4.59827 11.5748 4.96943 11.8358 5.37837 12.0144C5.78732 12.1929 6.22603 12.2855 6.66934 12.2869H11.6986C12.5905 12.2841 13.445 11.9126 14.0747 11.2537C14.7045 10.5948 15.0581 9.70232 15.0581 8.77189V3.51498C15.0581 2.58454 14.7045 1.69206 14.0747 1.03317C13.445 0.374279 12.5905 0.00274465 11.6986 0Z" fill="#868997"/>
<path d="M13.8356 3.51498L12.8356 3.51048V3.51498H13.8356ZM13.8356 8.75115H12.8355L12.8356 8.75565L13.8356 8.75115ZM11.7185 10.97L11.7185 9.97004H11.7185V10.97ZM6.66934 10.97V9.97004H6.66933L6.66934 10.97ZM4.55228 8.75115L5.55228 8.75565V8.75115H4.55228ZM4.55228 3.51498H5.55229L5.55227 3.51048L4.55228 3.51498ZM6.66934 1.29608L6.66933 2.29608H6.66934V1.29608ZM11.6986 0L11.7017 -1H11.6986V0ZM6.66934 0V-1L6.66627 -0.999995L6.66934 0ZM3.30987 3.51498H4.30987V3.51497L3.30987 3.51498ZM3.30987 8.75115L4.30987 8.75681V8.75115H3.30987ZM6.66934 12.2869L6.66629 13.2869H6.66934V12.2869ZM11.6986 12.2869V13.2869L11.7017 13.2869L11.6986 12.2869ZM15.0581 8.77189H14.0581V8.77189L15.0581 8.77189ZM15.0581 3.51498L14.0581 3.51497V3.51498H15.0581ZM11.7185 1.29608L11.7185 2.29608C11.8596 2.29608 12.0004 2.3251 12.1332 2.38267L12.531 1.46518L12.9287 0.547693C12.5465 0.381988 12.1351 0.296078 11.7185 0.296083L11.7185 1.29608ZM12.531 1.46518L12.1332 2.38267C12.2661 2.44029 12.3896 2.52595 12.4955 2.63691L13.219 1.9466L13.9425 1.25629C13.6549 0.954895 13.3108 0.713347 12.9287 0.547693L12.531 1.46518ZM13.219 1.9466L12.4955 2.63691C12.6014 2.74797 12.6875 2.88205 12.7466 3.03248L13.6773 2.66662L14.6079 2.30077C14.4555 1.9129 14.23 1.5576 13.9425 1.25629L13.219 1.9466ZM13.6773 2.66662L12.7466 3.03248C12.8058 3.18297 12.8363 3.34554 12.8356 3.51048L13.8356 3.51498L14.8355 3.51948C14.8374 3.10262 14.7604 2.68857 14.6079 2.30077L13.6773 2.66662ZM13.8356 3.51498H12.8356V8.75115H13.8356H14.8356V3.51498H13.8356ZM13.8356 8.75115L12.8356 8.75565C12.8363 8.92059 12.8058 9.08315 12.7466 9.23364L13.6773 9.5995L14.6079 9.96536C14.7604 9.57755 14.8374 9.16351 14.8355 8.74665L13.8356 8.75115ZM13.6773 9.5995L12.7466 9.23364C12.6875 9.38408 12.6014 9.51816 12.4955 9.62921L13.219 10.3195L13.9425 11.0098C14.23 10.7085 14.4555 10.3532 14.6079 9.96536L13.6773 9.5995ZM13.219 10.3195L12.4955 9.62921C12.3896 9.74017 12.2661 9.82584 12.1332 9.88346L12.531 10.8009L12.9287 11.7184C13.3108 11.5528 13.6549 11.3112 13.9425 11.0098L13.219 10.3195ZM12.531 10.8009L12.1332 9.88346C12.0004 9.94103 11.8596 9.97005 11.7185 9.97004L11.7185 10.97L11.7185 11.97C12.1351 11.97 12.5465 11.8841 12.9287 11.7184L12.531 10.8009ZM11.7185 10.97V9.97004H6.66934V10.97V11.97H11.7185V10.97ZM6.66934 10.97L6.66933 9.97004C6.52822 9.97005 6.38743 9.94102 6.25464 9.88346L5.85688 10.8009L5.45911 11.7184C5.84133 11.8841 6.25276 11.97 6.66936 11.97L6.66934 10.97ZM5.85688 10.8009L6.25464 9.88346C6.12173 9.82584 5.99821 9.74017 5.89234 9.62921L5.16883 10.3195L4.44531 11.0098C4.73288 11.3112 5.07701 11.5528 5.45911 11.7184L5.85688 10.8009ZM5.16883 10.3195L5.89234 9.62921C5.78639 9.51817 5.70038 9.38408 5.64124 9.23364L4.71057 9.5995L3.7799 9.96536C3.93237 10.3532 4.15783 10.7085 4.44531 11.0098L5.16883 10.3195ZM4.71057 9.5995L5.64124 9.23364C5.58208 9.08315 5.55153 8.92058 5.55227 8.75565L4.55228 8.75115L3.55229 8.74665C3.55041 9.16352 3.62745 9.57756 3.7799 9.96536L4.71057 9.5995ZM4.55228 8.75115H5.55228V3.51498H4.55228H3.55228V8.75115H4.55228ZM4.55228 3.51498L5.55227 3.51048C5.55153 3.34555 5.58208 3.18298 5.64124 3.03248L4.71057 2.66662L3.7799 2.30077C3.62745 2.68857 3.55041 3.10261 3.55229 3.51948L4.55228 3.51498ZM4.71057 2.66662L5.64124 3.03248C5.70038 2.88204 5.78639 2.74796 5.89234 2.63691L5.16883 1.9466L4.44531 1.25629C4.15783 1.55761 3.93237 1.91291 3.7799 2.30077L4.71057 2.66662ZM5.16883 1.9466L5.89234 2.63691C5.99821 2.52595 6.12173 2.44029 6.25464 2.38267L5.85688 1.46518L5.45911 0.547693C5.07701 0.713347 4.73288 0.954895 4.44531 1.25629L5.16883 1.9466ZM5.85688 1.46518L6.25464 2.38267C6.38743 2.3251 6.52822 2.29608 6.66933 2.29608L6.66934 1.29608L6.66936 0.296083C6.25276 0.296078 5.84133 0.381988 5.45911 0.547693L5.85688 1.46518ZM6.66934 1.29608V2.29608H11.6986V1.29608V0.296083H6.66934V1.29608ZM11.6986 0V-1H6.66934V0V1H11.6986V0ZM6.66934 0L6.66627 -0.999995C5.49573 -0.996393 4.38335 -0.508431 3.57032 0.342233L4.29324 1.03317L5.01615 1.7241C5.4626 1.25699 6.05916 1.00188 6.67242 0.999995L6.66934 0ZM4.29324 1.03317L3.57032 0.342233C2.75866 1.19147 2.30987 2.33313 2.30987 3.51498L3.30987 3.51498L4.30987 3.51497C4.30987 2.83595 4.56834 2.19265 5.01615 1.7241L4.29324 1.03317ZM3.30987 3.51498H2.30987V8.75115H3.30987H4.30987V3.51498H3.30987ZM3.30987 8.75115L2.30989 8.74549C2.30656 9.33378 2.41449 9.91786 2.62843 10.4646L3.55968 10.1002L4.49093 9.73587C4.3698 9.42628 4.30795 9.09345 4.30986 8.75681L3.30987 8.75115ZM3.55968 10.1002L2.62843 10.4646C2.84239 11.0114 3.15871 11.5115 3.56124 11.9352L4.28619 11.2464L5.01113 10.5576C4.78949 10.3243 4.61205 10.0454 4.49093 9.73587L3.55968 10.1002ZM4.28619 11.2464L3.56124 11.9352C3.96386 12.3589 4.44499 12.698 4.97824 12.9308L5.37837 12.0144L5.77851 11.0979C5.49386 10.9736 5.23269 10.7907 5.01113 10.5576L4.28619 11.2464ZM5.37837 12.0144L4.97824 12.9308C5.5116 13.1637 6.08537 13.2851 6.66629 13.2869L6.66934 12.2869L6.6724 11.2869C6.36668 11.2859 6.06304 11.2221 5.77851 11.0979L5.37837 12.0144ZM6.66934 12.2869V13.2869H11.6986V12.2869V11.2869H6.66934V12.2869ZM11.6986 12.2869L11.7017 13.2869C12.8722 13.2833 13.9846 12.7953 14.7976 11.9446L14.0747 11.2537L13.3518 10.5628C12.9054 11.0299 12.3088 11.285 11.6955 11.2869L11.6986 12.2869ZM14.0747 11.2537L14.7976 11.9446C15.6093 11.0954 16.0581 9.95373 16.0581 8.77188L15.0581 8.77189L14.0581 8.77189C14.0581 9.45092 13.7996 10.0942 13.3518 10.5628L14.0747 11.2537ZM15.0581 8.77189H16.0581V3.51498H15.0581H14.0581V8.77189H15.0581ZM15.0581 3.51498L16.0581 3.51498C16.0581 2.33313 15.6093 1.19147 14.7976 0.342233L14.0747 1.03317L13.3518 1.7241C13.7996 2.19264 14.0581 2.83595 14.0581 3.51497L15.0581 3.51498ZM14.0747 1.03317L14.7976 0.342233C13.9846 -0.508431 12.8722 -0.996393 11.7017 -0.999995L11.6986 0L11.6955 0.999995C12.3088 1.00188 12.9054 1.25699 13.3518 1.7241L14.0747 1.03317Z" fill="#868997" mask="url(#path-5-inside-1_53_451)"/>
<path d="M11.7282 24.3871H6.6791C5.16954 24.3871 3.9458 25.6637 3.9458 27.2385V32.5057C3.9458 34.0805 5.16954 35.3571 6.6791 35.3571H11.7282C13.2378 35.3571 14.4615 34.0805 14.4615 32.5057V27.2385C14.4615 25.6637 13.2378 24.3871 11.7282 24.3871Z" fill="#FAFCFE"/>
<mask id="path-8-inside-2_53_451" fill="white">
<path d="M11.7284 25.0403C12.2873 25.0403 12.8232 25.2719 13.2184 25.6842C13.6136 26.0964 13.8356 26.6555 13.8356 27.2385V32.5058C13.8356 33.0888 13.6136 33.6479 13.2184 34.0601C12.8232 34.4724 12.2873 34.7039 11.7284 34.7039H6.66935C6.11051 34.7039 5.57456 34.4724 5.17939 34.0601C4.78423 33.6479 4.56223 33.0888 4.56223 32.5058V27.2385C4.56223 26.6555 4.78423 26.0964 5.17939 25.6842C5.57456 25.2719 6.11051 25.0403 6.66935 25.0403H11.7185M11.7185 23.7443H6.66935C5.781 23.7443 4.92904 24.1124 4.30088 24.7677C3.67272 25.423 3.31982 26.3118 3.31982 27.2385V32.5058C3.31982 32.9647 3.40646 33.419 3.57479 33.843C3.74312 34.2669 3.98985 34.6521 4.30088 34.9766C4.61191 35.3011 4.98116 35.5584 5.38754 35.734C5.79393 35.9096 6.22949 36 6.66935 36H11.7185C12.1584 36 12.5939 35.9096 13.0003 35.734C13.4067 35.5584 13.7759 35.3011 14.087 34.9766C14.398 34.6521 14.6447 34.2669 14.8131 33.843C14.9814 33.419 15.068 32.9647 15.068 32.5058V27.2385C15.068 26.3118 14.7151 25.423 14.087 24.7677C13.4588 24.1124 12.6069 23.7443 11.7185 23.7443Z"/>
</mask>
<path d="M11.7284 25.0403C12.2873 25.0403 12.8232 25.2719 13.2184 25.6842C13.6136 26.0964 13.8356 26.6555 13.8356 27.2385V32.5058C13.8356 33.0888 13.6136 33.6479 13.2184 34.0601C12.8232 34.4724 12.2873 34.7039 11.7284 34.7039H6.66935C6.11051 34.7039 5.57456 34.4724 5.17939 34.0601C4.78423 33.6479 4.56223 33.0888 4.56223 32.5058V27.2385C4.56223 26.6555 4.78423 26.0964 5.17939 25.6842C5.57456 25.2719 6.11051 25.0403 6.66935 25.0403H11.7185M11.7185 23.7443H6.66935C5.781 23.7443 4.92904 24.1124 4.30088 24.7677C3.67272 25.423 3.31982 26.3118 3.31982 27.2385V32.5058C3.31982 32.9647 3.40646 33.419 3.57479 33.843C3.74312 34.2669 3.98985 34.6521 4.30088 34.9766C4.61191 35.3011 4.98116 35.5584 5.38754 35.734C5.79393 35.9096 6.22949 36 6.66935 36H11.7185C12.1584 36 12.5939 35.9096 13.0003 35.734C13.4067 35.5584 13.7759 35.3011 14.087 34.9766C14.398 34.6521 14.6447 34.2669 14.8131 33.843C14.9814 33.419 15.068 32.9647 15.068 32.5058V27.2385C15.068 26.3118 14.7151 25.423 14.087 24.7677C13.4588 24.1124 12.6069 23.7443 11.7185 23.7443Z" fill="#868997"/>
<path d="M13.8356 32.5058H12.8356H13.8356ZM6.66935 34.7039V33.7039V34.7039ZM4.56223 32.5058H3.56223H4.56223ZM4.56223 27.2385H3.56223H4.56223ZM11.7185 23.7443V22.7443V23.7443ZM6.66935 23.7443V22.7443V23.7443ZM3.31982 32.5058H4.31982H3.31982ZM6.66935 36V37V36ZM11.7185 36V37V36ZM15.068 27.2385H16.068H15.068ZM11.7284 25.0403V26.0403C12.0081 26.0403 12.2853 26.1558 12.4965 26.3762L13.2184 25.6842L13.9403 24.9922C13.3612 24.388 12.5665 24.0403 11.7284 24.0403V25.0403ZM13.2184 25.6842L12.4965 26.3762C12.7091 26.5979 12.8356 26.9074 12.8356 27.2385H13.8356H14.8356C14.8356 26.4036 14.518 25.5949 13.9403 24.9922L13.2184 25.6842ZM13.8356 27.2385H12.8356V32.5058H13.8356H14.8356V27.2385H13.8356ZM13.8356 32.5058H12.8356C12.8356 32.8369 12.7091 33.1463 12.4965 33.3681L13.2184 34.0601L13.9403 34.7521C14.518 34.1494 14.8356 33.3407 14.8356 32.5058H13.8356ZM13.2184 34.0601L12.4965 33.3681C12.2853 33.5884 12.0081 33.7039 11.7284 33.7039V34.7039V35.7039C12.5665 35.7039 13.3612 35.3563 13.9403 34.7521L13.2184 34.0601ZM11.7284 34.7039V33.7039H6.66935V34.7039V35.7039H11.7284V34.7039ZM6.66935 34.7039V33.7039C6.3897 33.7039 6.11249 33.5884 5.90129 33.3681L5.17939 34.0601L4.4575 34.7521C5.03662 35.3563 5.83132 35.7039 6.66935 35.7039V34.7039ZM5.17939 34.0601L5.90129 33.3681C5.68871 33.1463 5.56223 32.8369 5.56223 32.5058H4.56223H3.56223C3.56223 33.3407 3.87975 34.1494 4.4575 34.7521L5.17939 34.0601ZM4.56223 32.5058H5.56223V27.2385H4.56223H3.56223V32.5058H4.56223ZM4.56223 27.2385H5.56223C5.56223 26.9074 5.68871 26.5979 5.90129 26.3762L5.17939 25.6842L4.4575 24.9922C3.87976 25.5949 3.56223 26.4036 3.56223 27.2385H4.56223ZM5.17939 25.6842L5.90129 26.3762C6.11249 26.1558 6.3897 26.0403 6.66935 26.0403V25.0403V24.0403C5.83132 24.0403 5.03662 24.388 4.4575 24.9922L5.17939 25.6842ZM6.66935 25.0403V26.0403H11.7185V25.0403V24.0403H6.66935V25.0403ZM11.7185 23.7443V22.7443H6.66935V23.7443V24.7443H11.7185V23.7443ZM6.66935 23.7443V22.7443C5.50181 22.7443 4.3911 23.2285 3.57898 24.0757L4.30088 24.7677L5.02277 25.4597C5.46697 24.9963 6.06019 24.7443 6.66935 24.7443V23.7443ZM4.30088 24.7677L3.57898 24.0757C2.76824 24.9215 2.31982 26.0599 2.31982 27.2385H3.31982H4.31982C4.31982 26.5637 4.5772 25.9245 5.02277 25.4597L4.30088 24.7677ZM3.31982 27.2385H2.31982V32.5058H3.31982H4.31982V27.2385H3.31982ZM3.31982 32.5058H2.31982C2.31982 33.0902 2.43012 33.6699 2.64537 34.212L3.57479 33.843L4.50421 33.4739C4.3828 33.1682 4.31982 32.8391 4.31982 32.5058H3.31982ZM3.57479 33.843L2.64537 34.212C2.86064 34.7542 3.17722 35.2495 3.57898 35.6686L4.30088 34.9766L5.02277 34.2846C4.80247 34.0548 4.62559 33.7797 4.50421 33.4739L3.57479 33.843ZM4.30088 34.9766L3.57898 35.6686C3.98083 36.0878 4.4602 36.4227 4.99088 36.652L5.38754 35.734L5.78421 34.8161C5.50212 34.6942 5.24299 34.5143 5.02277 34.2846L4.30088 34.9766ZM5.38754 35.734L4.99088 36.652C5.52167 36.8814 6.09214 37 6.66935 37V36V35C6.36683 35 6.06619 34.9379 5.78421 34.8161L5.38754 35.734ZM6.66935 36V37H11.7185V36V35H6.66935V36ZM11.7185 36V37C12.2957 37 12.8662 36.8814 13.397 36.652L13.0003 35.734L12.6036 34.8161C12.3217 34.9379 12.021 35 11.7185 35V36ZM13.0003 35.734L13.397 36.652C13.9276 36.4227 14.407 36.0878 14.8089 35.6686L14.087 34.9766L13.3651 34.2846C13.1449 34.5143 12.8857 34.6942 12.6036 34.8161L13.0003 35.734ZM14.087 34.9766L14.8089 35.6686C15.2106 35.2495 15.5272 34.7542 15.7425 34.212L14.8131 33.843L13.8836 33.4739C13.7623 33.7797 13.5854 34.0548 13.3651 34.2846L14.087 34.9766ZM14.8131 33.843L15.7425 34.212C15.9577 33.6699 16.068 33.0902 16.068 32.5058H15.068H14.068C14.068 32.8391 14.0051 33.1682 13.8836 33.4739L14.8131 33.843ZM15.068 32.5058H16.068V27.2385H15.068H14.068V32.5058H15.068ZM15.068 27.2385H16.068C16.068 26.0599 15.6196 24.9215 14.8089 24.0757L14.087 24.7677L13.3651 25.4597C13.8107 25.9245 14.068 26.5637 14.068 27.2385H15.068ZM14.087 24.7677L14.8089 24.0757C13.9968 23.2285 12.886 22.7443 11.7185 22.7443V23.7443V24.7443C12.3277 24.7443 12.9209 24.9963 13.3651 25.4597L14.087 24.7677Z" fill="#868997" mask="url(#path-8-inside-2_53_451)"/>
<path d="M24.3113 23.5369C23.9733 23.5369 23.6385 23.4674 23.3262 23.3325C23.0139 23.1975 22.7301 22.9997 22.491 22.7503C22.252 22.501 22.0624 22.2049 21.933 21.8791C21.8036 21.5533 21.7371 21.2041 21.7371 20.8514V15.3975C21.7371 14.6495 22.0219 13.9322 22.5289 13.4032C23.0359 12.8743 23.7235 12.5772 24.4405 12.5772H29.6686C30.3513 12.5772 31.0061 12.8601 31.4889 13.3638C31.9716 13.8674 32.2429 14.5505 32.2429 15.2627V20.8514C32.2429 21.5636 31.9716 22.2467 31.4889 22.7503C31.0061 23.254 30.3513 23.5369 29.6686 23.5369H24.3113Z" fill="#FAFCFE"/>
<mask id="path-11-inside-3_53_451" fill="white">
<path d="M29.6688 13.22C30.196 13.22 30.7016 13.4385 31.0744 13.8274C31.4472 14.2163 31.6566 14.7438 31.6566 15.2938V20.8825C31.6566 21.4325 31.4472 21.9599 31.0744 22.3488C30.7016 22.7377 30.196 22.9562 29.6688 22.9562H24.3115C23.7843 22.9562 23.2787 22.7377 22.9059 22.3488C22.5331 21.9599 22.3237 21.4325 22.3237 20.8825V15.3975C22.3237 14.82 22.5436 14.2661 22.935 13.8578C23.3264 13.4494 23.8573 13.22 24.4109 13.22H29.639M29.639 11.924H24.4407C23.5577 11.924 22.7107 12.2899 22.0863 12.9413C21.4619 13.5927 21.1111 14.4762 21.1111 15.3975V20.8514C21.1137 21.736 21.4517 22.5836 22.0514 23.2092C22.651 23.8347 23.4635 24.1873 24.3115 24.1901H29.6688C30.5168 24.1873 31.3293 23.8347 31.9289 23.2092C32.5286 22.5836 32.8666 21.736 32.8692 20.8514V15.2627C32.8666 14.378 32.5286 13.5304 31.9289 12.9049C31.3293 12.2793 30.5168 11.9267 29.6688 11.924H29.639Z"/>
</mask>
<path d="M29.6688 13.22C30.196 13.22 30.7016 13.4385 31.0744 13.8274C31.4472 14.2163 31.6566 14.7438 31.6566 15.2938V20.8825C31.6566 21.4325 31.4472 21.9599 31.0744 22.3488C30.7016 22.7377 30.196 22.9562 29.6688 22.9562H24.3115C23.7843 22.9562 23.2787 22.7377 22.9059 22.3488C22.5331 21.9599 22.3237 21.4325 22.3237 20.8825V15.3975C22.3237 14.82 22.5436 14.2661 22.935 13.8578C23.3264 13.4494 23.8573 13.22 24.4109 13.22H29.639M29.639 11.924H24.4407C23.5577 11.924 22.7107 12.2899 22.0863 12.9413C21.4619 13.5927 21.1111 14.4762 21.1111 15.3975V20.8514C21.1137 21.736 21.4517 22.5836 22.0514 23.2092C22.651 23.8347 23.4635 24.1873 24.3115 24.1901H29.6688C30.5168 24.1873 31.3293 23.8347 31.9289 23.2092C32.5286 22.5836 32.8666 21.736 32.8692 20.8514V15.2627C32.8666 14.378 32.5286 13.5304 31.9289 12.9049C31.3293 12.2793 30.5168 11.9267 29.6688 11.924H29.639Z" fill="#868997"/>
<path d="M24.4109 13.22V12.22V13.22ZM24.4407 11.924V12.924V11.924ZM21.1111 15.3975H22.1111H21.1111ZM21.1111 20.8514H20.1111L20.1111 20.8543L21.1111 20.8514ZM24.3115 24.1901L24.3083 25.1901H24.3115V24.1901ZM29.6688 24.1901V25.1901L29.672 25.1901L29.6688 24.1901ZM32.8692 20.8514L33.8692 20.8543V20.8514H32.8692ZM32.8692 15.2627H33.8692L33.8692 15.2597L32.8692 15.2627ZM29.6688 11.924L29.672 10.924H29.6688V11.924ZM29.6688 13.22V14.22C29.9168 14.22 30.1637 14.3224 30.3525 14.5194L31.0744 13.8274L31.7963 13.1354C31.2396 12.5546 30.4752 12.22 29.6688 12.22V13.22ZM31.0744 13.8274L30.3525 14.5194C30.5427 14.7178 30.6566 14.9957 30.6566 15.2938H31.6566H32.6566C32.6566 14.4919 32.3517 13.7148 31.7963 13.1354L31.0744 13.8274ZM31.6566 15.2938H30.6566V20.8825H31.6566H32.6566V15.2938H31.6566ZM31.6566 20.8825H30.6566C30.6566 21.1806 30.5427 21.4584 30.3525 21.6568L31.0744 22.3488L31.7963 23.0408C32.3517 22.4615 32.6566 21.6844 32.6566 20.8825H31.6566ZM31.0744 22.3488L30.3525 21.6568C30.1637 21.8538 29.9168 21.9562 29.6688 21.9562V22.9562V23.9562C30.4752 23.9562 31.2396 23.6216 31.7963 23.0408L31.0744 22.3488ZM29.6688 22.9562V21.9562H24.3115V22.9562V23.9562H29.6688V22.9562ZM24.3115 22.9562V21.9562C24.0635 21.9562 23.8166 21.8538 23.6278 21.6568L22.9059 22.3488L22.184 23.0408C22.7408 23.6216 23.5051 23.9562 24.3115 23.9562V22.9562ZM22.9059 22.3488L23.6278 21.6568C23.4376 21.4584 23.3237 21.1806 23.3237 20.8825H22.3237H21.3237C21.3237 21.6844 21.6286 22.4615 22.184 23.0408L22.9059 22.3488ZM22.3237 20.8825H23.3237V15.3975H22.3237H21.3237V20.8825H22.3237ZM22.3237 15.3975H23.3237C23.3237 15.0719 23.4481 14.7677 23.6569 14.5498L22.935 13.8578L22.2131 13.1658C21.6391 13.7646 21.3237 14.5681 21.3237 15.3975H22.3237ZM22.935 13.8578L23.6569 14.5498C23.8644 14.3333 24.1365 14.22 24.4109 14.22V13.22V12.22C23.5782 12.22 22.7885 12.5655 22.2131 13.1658L22.935 13.8578ZM24.4109 13.22V14.22H29.639V13.22V12.22H24.4109V13.22ZM29.639 11.924V10.924H24.4407V11.924V12.924H29.639V11.924ZM24.4407 11.924V10.924C23.2785 10.924 22.1728 11.406 21.3644 12.2493L22.0863 12.9413L22.8082 13.6333C23.2487 13.1738 23.8368 12.924 24.4407 12.924V11.924ZM22.0863 12.9413L21.3644 12.2493C20.5574 13.0912 20.1111 14.2243 20.1111 15.3975H21.1111H22.1111C22.1111 14.7281 22.3664 14.0943 22.8082 13.6333L22.0863 12.9413ZM21.1111 15.3975H20.1111V20.8514H21.1111H22.1111V15.3975H21.1111ZM21.1111 20.8514L20.1111 20.8543C20.1145 21.9899 20.548 23.0859 21.3295 23.9012L22.0514 23.2092L22.7733 22.5172C22.3555 22.0813 22.113 21.4822 22.1111 20.8484L21.1111 20.8514ZM22.0514 23.2092L21.3295 23.9012C22.1123 24.7178 23.1823 25.1864 24.3083 25.1901L24.3115 24.1901L24.3148 23.1901C23.7448 23.1882 23.1897 22.9516 22.7733 22.5172L22.0514 23.2092ZM24.3115 24.1901V25.1901H29.6688V24.1901V23.1901H24.3115V24.1901ZM29.6688 24.1901L29.672 25.1901C30.7981 25.1864 31.868 24.7178 32.6508 23.9012L31.9289 23.2092L31.207 22.5172C30.7906 22.9516 30.2355 23.1882 29.6656 23.1901L29.6688 24.1901ZM31.9289 23.2092L32.6508 23.9012C33.4323 23.0859 33.8659 21.9899 33.8692 20.8543L32.8692 20.8514L31.8692 20.8484C31.8674 21.4822 31.6248 22.0813 31.207 22.5172L31.9289 23.2092ZM32.8692 20.8514H33.8692V15.2627H32.8692H31.8692V20.8514H32.8692ZM32.8692 15.2627L33.8692 15.2597C33.8659 14.1242 33.4323 13.0281 32.6508 12.2129L31.9289 12.9049L31.207 13.5969C31.6248 14.0327 31.8674 14.6319 31.8692 15.2656L32.8692 15.2627ZM31.9289 12.9049L32.6508 12.2129C31.868 11.3962 30.7981 10.9276 29.672 10.924L29.6688 11.924L29.6656 12.9239C30.2355 12.9258 30.7906 13.1624 31.207 13.5969L31.9289 12.9049ZM29.6688 11.924V10.924H29.639V11.924V12.924H29.6688V11.924Z" fill="#868997" mask="url(#path-11-inside-3_53_451)"/>
</g>
<defs>
<clipPath id="clip0_53_451">
<rect width="36" height="36" fill="white"/>
</clipPath>
</defs>
</svg>
